<svg width="110" height="100" viewBox="0 0 110 145" fill="none" xmlns="http://www.w3.org/2000/svg">
<path d="M0.5 5C0.5 2.51472 2.51472 0.5 5 0.5H105C107.485 0.5 109.5 2.51472 109.5 5V109.5H0.5V5Z" fill="white" stroke="#FED64D"/>
<rect x="35.5" y="10.5" width="39" height="89" stroke="black" stroke-linecap="square" stroke-dasharray="2 5"/>
<path d="M0.5 109.5H109.5V140C109.5 142.485 107.485 144.5 105 144.5H5C2.51472 144.5 0.5 142.485 0.5 140V109.5Z" fill="white" stroke="#FED64D"/>
<path d="M17.2988 132H11.709V131.221L14.6621 127.939C15.0996 127.443 15.4004 127.041 15.5645 126.732C15.7324 126.42 15.8164 126.098 15.8164 125.766C15.8164 125.32 15.6816 124.955 15.4121 124.67C15.1426 124.385 14.7832 124.242 14.334 124.242C13.7949 124.242 13.375 124.396 13.0742 124.705C12.7773 125.01 12.6289 125.436 12.6289 125.982H11.5449C11.5449 125.197 11.7969 124.562 12.3008 124.078C12.8086 123.594 13.4863 123.352 14.334 123.352C15.127 123.352 15.7539 123.561 16.2148 123.979C16.6758 124.393 16.9062 124.945 16.9062 125.637C16.9062 126.477 16.3711 127.477 15.3008 128.637L13.0156 131.115H17.2988V132ZM18.5234 131.432C18.5234 131.244 18.5781 131.088 18.6875 130.963C18.8008 130.838 18.9688 130.775 19.1914 130.775C19.4141 130.775 19.582 130.838 19.6953 130.963C19.8125 131.088 19.8711 131.244 19.8711 131.432C19.8711 131.611 19.8125 131.762 19.6953 131.883C19.582 132.004 19.4141 132.064 19.1914 132.064C18.9688 132.064 18.8008 132.004 18.6875 131.883C18.5781 131.762 18.5234 131.611 18.5234 131.432ZM18.5293 126.258C18.5293 126.07 18.584 125.914 18.6934 125.789C18.8066 125.664 18.9746 125.602 19.1973 125.602C19.4199 125.602 19.5879 125.664 19.7012 125.789C19.8184 125.914 19.877 126.07 19.877 126.258C19.877 126.438 19.8184 126.588 19.7012 126.709C19.5879 126.83 19.4199 126.891 19.1973 126.891C18.9746 126.891 18.8066 126.83 18.6934 126.709C18.584 126.588 18.5293 126.438 18.5293 126.258ZM24.916 132H23.8262V124.775L21.6406 125.578V124.594L24.7461 123.428H24.916V132ZM36.0605 129.773H32.4863L31.6836 132H30.5234L33.7812 123.469H34.7656L38.0293 132H36.875L36.0605 129.773ZM32.8262 128.848H35.7266L34.2734 124.857L32.8262 128.848ZM42.6992 130.318C42.6992 130.025 42.5879 129.799 42.3652 129.639C42.1465 129.475 41.7617 129.334 41.2109 129.217C40.6641 129.1 40.2285 128.959 39.9043 128.795C39.584 128.631 39.3457 128.436 39.1895 128.209C39.0371 127.982 38.9609 127.713 38.9609 127.4C38.9609 126.881 39.1797 126.441 39.6172 126.082C40.0586 125.723 40.6211 125.543 41.3047 125.543C42.0234 125.543 42.6055 125.729 43.0508 126.1C43.5 126.471 43.7246 126.945 43.7246 127.523H42.6348C42.6348 127.227 42.5078 126.971 42.2539 126.756C42.0039 126.541 41.6875 126.434 41.3047 126.434C40.9102 126.434 40.6016 126.52 40.3789 126.691C40.1562 126.863 40.0449 127.088 40.0449 127.365C40.0449 127.627 40.1484 127.824 40.3555 127.957C40.5625 128.09 40.9355 128.217 41.4746 128.338C42.0176 128.459 42.457 128.604 42.793 128.771C43.1289 128.939 43.377 129.143 43.5371 129.381C43.7012 129.615 43.7832 129.902 43.7832 130.242C43.7832 130.809 43.5566 131.264 43.1035 131.607C42.6504 131.947 42.0625 132.117 41.3398 132.117C40.832 132.117 40.3828 132.027 39.9922 131.848C39.6016 131.668 39.2949 131.418 39.0723 131.098C38.8535 130.773 38.7441 130.424 38.7441 130.049H39.8281C39.8477 130.412 39.9922 130.701 40.2617 130.916C40.5352 131.127 40.8945 131.232 41.3398 131.232C41.75 131.232 42.0781 131.15 42.3242 130.986C42.5742 130.818 42.6992 130.596 42.6992 130.318ZM50.5508 128.9C50.5508 129.865 50.3301 130.643 49.8887 131.232C49.4473 131.822 48.8496 132.117 48.0957 132.117C47.3262 132.117 46.7207 131.873 46.2793 131.385V134.438H45.1953V125.66H46.1855L46.2383 126.363C46.6797 125.816 47.293 125.543 48.0781 125.543C48.8398 125.543 49.4414 125.83 49.8828 126.404C50.3281 126.979 50.5508 127.777 50.5508 128.801V128.9ZM49.4668 128.777C49.4668 128.062 49.3145 127.498 49.0098 127.084C48.7051 126.67 48.2871 126.463 47.7559 126.463C47.0996 126.463 46.6074 126.754 46.2793 127.336V130.365C46.6035 130.943 47.0996 131.232 47.7676 131.232C48.2871 131.232 48.6992 131.027 49.0039 130.617C49.3125 130.203 49.4668 129.59 49.4668 128.777ZM54.5645 132.117C53.7051 132.117 53.0059 131.836 52.4668 131.273C51.9277 130.707 51.6582 129.951 51.6582 129.006V128.807C51.6582 128.178 51.7773 127.617 52.0156 127.125C52.2578 126.629 52.5938 126.242 53.0234 125.965C53.457 125.684 53.9258 125.543 54.4297 125.543C55.2539 125.543 55.8945 125.814 56.3516 126.357C56.8086 126.9 57.0371 127.678 57.0371 128.689V129.141H52.7422C52.7578 129.766 52.9395 130.271 53.2871 130.658C53.6387 131.041 54.084 131.232 54.623 131.232C55.0059 131.232 55.3301 131.154 55.5957 130.998C55.8613 130.842 56.0938 130.635 56.293 130.377L56.9551 130.893C56.4238 131.709 55.627 132.117 54.5645 132.117ZM54.4297 126.434C53.9922 126.434 53.625 126.594 53.3281 126.914C53.0312 127.23 52.8477 127.676 52.7773 128.25H55.9531V128.168C55.9219 127.617 55.7734 127.191 55.5078 126.891C55.2422 126.586 54.8828 126.434 54.4297 126.434ZM60.8398 131.232C61.2266 131.232 61.5645 131.115 61.8535 130.881C62.1426 130.646 62.3027 130.354 62.334 130.002H63.3594C63.3398 130.365 63.2148 130.711 62.9844 131.039C62.7539 131.367 62.4453 131.629 62.0586 131.824C61.6758 132.02 61.2695 132.117 60.8398 132.117C59.9766 132.117 59.2891 131.83 58.7773 131.256C58.2695 130.678 58.0156 129.889 58.0156 128.889V128.707C58.0156 128.09 58.1289 127.541 58.3555 127.061C58.582 126.58 58.9062 126.207 59.3281 125.941C59.7539 125.676 60.2559 125.543 60.834 125.543C61.5449 125.543 62.1348 125.756 62.6035 126.182C63.0762 126.607 63.3281 127.16 63.3594 127.84H62.334C62.3027 127.43 62.1465 127.094 61.8652 126.832C61.5879 126.566 61.2441 126.434 60.834 126.434C60.2832 126.434 59.8555 126.633 59.5508 127.031C59.25 127.426 59.0996 127.998 59.0996 128.748V128.953C59.0996 129.684 59.25 130.246 59.5508 130.641C59.8516 131.035 60.2812 131.232 60.8398 131.232ZM66.0488 124.125V125.66H67.2324V126.498H66.0488V130.43C66.0488 130.684 66.1016 130.875 66.207 131.004C66.3125 131.129 66.4922 131.191 66.7461 131.191C66.8711 131.191 67.043 131.168 67.2617 131.121V132C66.9766 132.078 66.6992 132.117 66.4297 132.117C65.9453 132.117 65.5801 131.971 65.334 131.678C65.0879 131.385 64.9648 130.969 64.9648 130.43V126.498H63.8105V125.66H64.9648V124.125H66.0488ZM74.7793 128.549H72.7754V132H71.6445V123.469H74.4688C75.4297 123.469 76.168 123.688 76.6836 124.125C77.2031 124.562 77.4629 125.199 77.4629 126.035C77.4629 126.566 77.3184 127.029 77.0293 127.424C76.7441 127.818 76.3457 128.113 75.834 128.309L77.8379 131.93V132H76.6309L74.7793 128.549ZM72.7754 127.629H74.5039C75.0625 127.629 75.5059 127.484 75.834 127.195C76.166 126.906 76.332 126.52 76.332 126.035C76.332 125.508 76.1738 125.104 75.8574 124.822C75.5449 124.541 75.0918 124.398 74.498 124.395H72.7754V127.629ZM82.7891 132C82.7266 131.875 82.6758 131.652 82.6367 131.332C82.1328 131.855 81.5312 132.117 80.832 132.117C80.207 132.117 79.6934 131.941 79.291 131.59C78.8926 131.234 78.6934 130.785 78.6934 130.242C78.6934 129.582 78.9434 129.07 79.4434 128.707C79.9473 128.34 80.6543 128.156 81.5645 128.156H82.6191V127.658C82.6191 127.279 82.5059 126.979 82.2793 126.756C82.0527 126.529 81.7188 126.416 81.2773 126.416C80.8906 126.416 80.5664 126.514 80.3047 126.709C80.043 126.904 79.9121 127.141 79.9121 127.418H78.8223C78.8223 127.102 78.9336 126.797 79.1562 126.504C79.3828 126.207 79.6875 125.973 80.0703 125.801C80.457 125.629 80.8809 125.543 81.3418 125.543C82.0723 125.543 82.6445 125.727 83.0586 126.094C83.4727 126.457 83.6875 126.959 83.7031 127.6V130.518C83.7031 131.1 83.7773 131.562 83.9258 131.906V132H82.7891ZM80.9902 131.174C81.3301 131.174 81.6523 131.086 81.957 130.91C82.2617 130.734 82.4824 130.506 82.6191 130.225V128.924H81.7695C80.4414 128.924 79.7773 129.312 79.7773 130.09C79.7773 130.43 79.8906 130.695 80.1172 130.887C80.3438 131.078 80.6348 131.174 80.9902 131.174ZM86.873 124.125V125.66H88.0566V126.498H86.873V130.43C86.873 130.684 86.9258 130.875 87.0312 131.004C87.1367 131.129 87.3164 131.191 87.5703 131.191C87.6953 131.191 87.8672 131.168 88.0859 131.121V132C87.8008 132.078 87.5234 132.117 87.2539 132.117C86.7695 132.117 86.4043 131.971 86.1582 131.678C85.9121 131.385 85.7891 130.969 85.7891 130.43V126.498H84.6348V125.66H85.7891V124.125H86.873ZM90.5059 132H89.4219V125.66H90.5059V132ZM89.334 123.979C89.334 123.803 89.3867 123.654 89.4922 123.533C89.6016 123.412 89.7617 123.352 89.9727 123.352C90.1836 123.352 90.3438 123.412 90.4531 123.533C90.5625 123.654 90.6172 123.803 90.6172 123.979C90.6172 124.154 90.5625 124.301 90.4531 124.418C90.3438 124.535 90.1836 124.594 89.9727 124.594C89.7617 124.594 89.6016 124.535 89.4922 124.418C89.3867 124.301 89.334 124.154 89.334 123.979ZM91.959 128.771C91.959 128.15 92.0801 127.592 92.3223 127.096C92.5684 126.6 92.9082 126.217 93.3418 125.947C93.7793 125.678 94.2773 125.543 94.8359 125.543C95.6992 125.543 96.3965 125.842 96.9277 126.439C97.4629 127.037 97.7305 127.832 97.7305 128.824V128.9C97.7305 129.518 97.6113 130.072 97.373 130.564C97.1387 131.053 96.8008 131.434 96.3594 131.707C95.9219 131.98 95.418 132.117 94.8477 132.117C93.9883 132.117 93.291 131.818 92.7559 131.221C92.2246 130.623 91.959 129.832 91.959 128.848V128.771ZM93.0488 128.9C93.0488 129.604 93.2109 130.168 93.5352 130.594C93.8633 131.02 94.3008 131.232 94.8477 131.232C95.3984 131.232 95.8359 131.018 96.1602 130.588C96.4844 130.154 96.6465 129.549 96.6465 128.771C96.6465 128.076 96.4805 127.514 96.1484 127.084C95.8203 126.65 95.3828 126.434 94.8359 126.434C94.3008 126.434 93.8691 126.646 93.541 127.072C93.2129 127.498 93.0488 128.107 93.0488 128.9Z" fill="black"/>
</svg>
