<svg width="30" height="30" viewBox="0 0 20 20" fill="none" xmlns="http://www.w3.org/2000/svg">
<path d="M10 0C4.48578 0 0 4.48578 0 10C0 15.5142 4.48578 20 10 20C15.5142 20 20 15.5142 20 10C20 4.48578 15.5142 0 10 0Z" fill="#098B4D"/>
<path d="M14.3748 10.8333H10.8331V14.375C10.8331 14.8351 10.4598 15.2083 9.99979 15.2083C9.53973 15.2083 9.1665 14.8351 9.1665 14.375V10.8333H5.62479C5.16473 10.8333 4.7915 10.4601 4.7915 10C4.7915 9.53998 5.16473 9.16675 5.62479 9.16675H9.1665V5.62503C9.1665 5.16498 9.53973 4.79175 9.99979 4.79175C10.4598 4.79175 10.8331 5.16498 10.8331 5.62503V9.16675H14.3748C14.8348 9.16675 15.2081 9.53998 15.2081 10C15.2081 10.4601 14.8348 10.8333 14.3748 10.8333V10.8333Z" fill="#FAFAFA"/>
</svg>
