<svg width="18" height="18" viewBox="0 0 18 18" fill="none" xmlns="http://www.w3.org/2000/svg">
<path d="M4.875 1.5H15V16.5H4.875C4.37772 16.5 3.90081 16.3025 3.54917 15.9508C3.19754 15.5992 3 15.1223 3 14.625V3.375C3 2.87772 3.19754 2.40081 3.54917 2.04917C3.90081 1.69754 4.37772 1.5 4.875 1.5V1.5Z" fill="black" stroke="black" stroke-width="2" stroke-linecap="round" stroke-linejoin="round"/>
<path d="M2 14.625C2 14.1277 2.19754 13.6508 2.54917 13.2992C2.90081 12.9475 4.37772 12.75 4.875 12.75H15" stroke="white" stroke-linecap="round" stroke-linejoin="round"/>
<path d="M2 15.625C2 15.1277 2.19754 14.6508 2.54917 14.2992C2.90081 13.9475 4.37772 13.75 4.875 13.75H15" stroke="white" stroke-width="0.5" stroke-linecap="round" stroke-linejoin="round"/>
<path d="M2 16.625C2 16.1277 2.19754 15.6508 2.54917 15.2992C2.90081 14.9475 4.37772 14.75 4.875 14.75H15" stroke="white" stroke-width="0.5" stroke-linecap="round" stroke-linejoin="round"/>
<g clip-path="url(#clip0)">
<path d="M12 6.33333C12 8.66667 9 10.6667 9 10.6667C9 10.6667 6 8.66667 6 6.33333C6 5.53768 6.31607 4.77462 6.87868 4.21201C7.44129 3.6494 8.20435 3.33333 9 3.33333C9.79565 3.33333 10.5587 3.6494 11.1213 4.21201C11.6839 4.77462 12 5.53768 12 6.33333Z" stroke="white" stroke-width="0.7" stroke-linecap="round" stroke-linejoin="round"/>
<path d="M9 7.33333C9.55228 7.33333 10 6.88562 10 6.33333C10 5.78105 9.55228 5.33333 9 5.33333C8.44772 5.33333 8 5.78105 8 6.33333C8 6.88562 8.44772 7.33333 9 7.33333Z" stroke="white" stroke-width="0.7" stroke-linecap="round" stroke-linejoin="round"/>
</g>
<defs>
<clipPath id="clip0">
<rect width="8" height="8" fill="white" transform="translate(5 3)"/>
</clipPath>
</defs>
</svg>
