<svg width="16" height="16" viewBox="0 0 16 16" fill="none" xmlns="http://www.w3.org/2000/svg">
<circle cx="8" cy="8" r="8" fill="#EAEAEA"/>
<g clip-path="url(#clip0)">
<path d="M5.16255 8.33749C4.46083 7.25541 4.0227 6.02381 3.88339 4.74166C3.87297 4.62643 3.88667 4.51031 3.9236 4.40067C3.96052 4.29103 4.01987 4.19028 4.09787 4.10483C4.17587 4.01939 4.27081 3.95112 4.37663 3.90437C4.48246 3.85763 4.59686 3.83343 4.71255 3.83332H5.96255C6.16476 3.83133 6.3608 3.90294 6.51412 4.03479C6.66744 4.16665 6.76759 4.34976 6.79589 4.54999C6.84865 4.95002 6.94649 5.34279 7.08755 5.72082C7.14361 5.86996 7.15575 6.03204 7.12251 6.18786C7.08928 6.34368 7.01208 6.4867 6.90005 6.59999L6.37089 7.12916M7.45005 8.54582C7.87291 8.96905 8.35081 9.33343 8.87089 9.62916L9.40005 9.09999C9.51334 8.98796 9.65637 8.91076 9.81219 8.87753C9.96801 8.8443 10.1301 8.85643 10.2792 8.91249C10.6573 9.05355 11.05 9.1514 11.4501 9.20416C11.6503 9.23246 11.8334 9.3326 11.9652 9.48592C12.0971 9.63924 12.1687 9.83528 12.1667 10.0375V11.2875C12.1672 11.4035 12.1434 11.5184 12.0969 11.6247C12.0504 11.731 11.9823 11.8265 11.8968 11.9049C11.8112 11.9834 11.7103 12.0431 11.6004 12.0803C11.4904 12.1175 11.374 12.1313 11.2584 12.1208C9.97623 11.9815 8.74464 11.5434 7.66255 10.8417C7.16058 10.5229 6.69527 10.1498 6.27505 9.72916L7.45005 8.54582Z" stroke="black" stroke-linecap="round" stroke-linejoin="round"/>
<path d="M12.5833 3.41666L3.41663 12.5833" stroke="black" stroke-linecap="round" stroke-linejoin="round"/>
</g>
<defs>
<clipPath id="clip0">
<rect width="10" height="10" fill="white" transform="translate(3 3)"/>
</clipPath>
</defs>
</svg>
