<svg width="20" height="20" viewBox="0 0 20 20" fill="none" xmlns="http://www.w3.org/2000/svg">
<path d="M20 10C20 15.5229 15.5229 20 10 20C4.47708 20 0 15.5229 0 10C0 4.47708 4.47708 0 10 0C15.5229 0 20 4.47708 20 10Z" fill="#5BC980"/>
<path d="M5.58545 5.40466H14.4012V14.548H5.58545V5.40466Z" fill="#A2D8F4"/>
<path d="M9.6571 12.6489L5.58545 14.5476V5.40436L9.6571 3.50555V12.6489Z" fill="#FDF3F4"/>
<path d="M7.98706 6.84982L6.45874 7.56256V6.03424L7.98706 5.3215V6.84982Z" fill="#A2D8F4"/>
<path d="M8.69675 7.61078L6.45874 8.65433V8.43597L8.69675 7.39227V7.61078Z" fill="#005285"/>
<path d="M8.69675 8.36945L6.45874 9.41299V9.19464L8.69675 8.15109V8.36945Z" fill="#005285"/>
<path d="M8.69675 9.12811L6.45874 10.1718V9.95346L8.69675 8.90976V9.12811Z" fill="#005285"/>
<path d="M8.69675 9.88693L6.45874 10.9305V10.7121L8.69675 9.66858V9.88693Z" fill="#005285"/>
<path d="M10.0032 5.40466H14.4009V14.548H10.0032V5.40466Z" fill="#27B2EB"/>
<path d="M7.73956 11.0919L6.45874 11.6891V11.4709L7.73956 10.8736V11.0919Z" fill="#005285"/>
<path d="M14.3778 14.548L10.3062 12.6494V3.50616L14.3778 5.40466V14.548Z" fill="#DEECF1"/>
<path d="M12.7078 11.2146L11.1794 10.5019V8.97339L12.7078 9.68613V11.2146Z" fill="#27B2EB"/>
<path d="M13.4174 7.612L11.1794 6.56845V5.03998L13.4174 6.08353V7.612Z" fill="#27B2EB"/>
<path d="M13.4174 8.6142L11.1794 7.57065V7.35229L13.4174 8.39584V8.6142Z" fill="#001035"/>
<path d="M13.4174 9.37302L11.1794 8.32932V8.11096L13.4174 9.15466V9.37302Z" fill="#001035"/>
<path d="M13.4174 12.3979L11.1794 11.3544V11.136L13.4174 12.1796V12.3979Z" fill="#001035"/>
<path d="M12.4603 12.7104L11.1794 12.113V11.8947L12.4603 12.4921V12.7104Z" fill="#001035"/>
</svg>
