<svg width="14" height="14" viewBox="0 0 14 14" fill="none" xmlns="http://www.w3.org/2000/svg">
<g clip-path="url(#clip0)">
<path d="M7.60083 1.09084L1.19 0.116671C0.8925 0.0700038 0.589167 0.151671 0.361667 0.344171C0.134167 0.542504 0 0.828338 0 1.12584V13.4167C0 13.7375 0.2625 14 0.583333 14H2.47917V10.9375C2.47917 10.3717 2.93417 9.91668 3.5 9.91668H4.95833C5.52417 9.91668 5.97917 10.3717 5.97917 10.9375V14H8.45833V2.10001C8.45833 1.59834 8.09667 1.1725 7.60083 1.09084V1.09084ZM3.20833 8.60418H2.33333C2.09183 8.60418 1.89583 8.40818 1.89583 8.16668C1.89583 7.92518 2.09183 7.72918 2.33333 7.72918H3.20833C3.44983 7.72918 3.64583 7.92518 3.64583 8.16668C3.64583 8.40818 3.44983 8.60418 3.20833 8.60418ZM3.20833 6.85418H2.33333C2.09183 6.85418 1.89583 6.65818 1.89583 6.41668C1.89583 6.17517 2.09183 5.97917 2.33333 5.97917H3.20833C3.44983 5.97917 3.64583 6.17517 3.64583 6.41668C3.64583 6.65818 3.44983 6.85418 3.20833 6.85418ZM3.20833 5.10417H2.33333C2.09183 5.10417 1.89583 4.90817 1.89583 4.66667C1.89583 4.42517 2.09183 4.22917 2.33333 4.22917H3.20833C3.44983 4.22917 3.64583 4.42517 3.64583 4.66667C3.64583 4.90817 3.44983 5.10417 3.20833 5.10417ZM3.20833 3.35417H2.33333C2.09183 3.35417 1.89583 3.15817 1.89583 2.91667C1.89583 2.67517 2.09183 2.47917 2.33333 2.47917H3.20833C3.44983 2.47917 3.64583 2.67517 3.64583 2.91667C3.64583 3.15817 3.44983 3.35417 3.20833 3.35417ZM6.125 8.60418H5.25C5.0085 8.60418 4.8125 8.40818 4.8125 8.16668C4.8125 7.92518 5.0085 7.72918 5.25 7.72918H6.125C6.3665 7.72918 6.5625 7.92518 6.5625 8.16668C6.5625 8.40818 6.3665 8.60418 6.125 8.60418ZM6.125 6.85418H5.25C5.0085 6.85418 4.8125 6.65818 4.8125 6.41668C4.8125 6.17517 5.0085 5.97917 5.25 5.97917H6.125C6.3665 5.97917 6.5625 6.17517 6.5625 6.41668C6.5625 6.65818 6.3665 6.85418 6.125 6.85418ZM6.125 5.10417H5.25C5.0085 5.10417 4.8125 4.90817 4.8125 4.66667C4.8125 4.42517 5.0085 4.22917 5.25 4.22917H6.125C6.3665 4.22917 6.5625 4.42517 6.5625 4.66667C6.5625 4.90817 6.3665 5.10417 6.125 5.10417ZM6.125 3.35417H5.25C5.0085 3.35417 4.8125 3.15817 4.8125 2.91667C4.8125 2.67517 5.0085 2.47917 5.25 2.47917H6.125C6.3665 2.47917 6.5625 2.67517 6.5625 2.91667C6.5625 3.15817 6.3665 3.35417 6.125 3.35417Z" fill="#48D6CD"/>
<path d="M13.1951 6.32449L9.04175 5.45474V14H12.9792C13.5422 14 14.0001 13.5421 14.0001 12.9792V7.32199C14.0001 6.84016 13.6717 6.43008 13.1951 6.32449V6.32449ZM11.8126 12.25H10.9376C10.6961 12.25 10.5001 12.054 10.5001 11.8125C10.5001 11.571 10.6961 11.375 10.9376 11.375H11.8126C12.0541 11.375 12.2501 11.571 12.2501 11.8125C12.2501 12.054 12.0541 12.25 11.8126 12.25ZM11.8126 10.5H10.9376C10.6961 10.5 10.5001 10.304 10.5001 10.0625C10.5001 9.821 10.6961 9.625 10.9376 9.625H11.8126C12.0541 9.625 12.2501 9.821 12.2501 10.0625C12.2501 10.304 12.0541 10.5 11.8126 10.5ZM11.8126 8.75H10.9376C10.6961 8.75 10.5001 8.554 10.5001 8.3125C10.5001 8.071 10.6961 7.875 10.9376 7.875H11.8126C12.0541 7.875 12.2501 8.071 12.2501 8.3125C12.2501 8.554 12.0541 8.75 11.8126 8.75Z" fill="#48D6CD"/>
</g>
<defs>
<clipPath id="clip0">
<rect width="14" height="14" fill="white"/>
</clipPath>
</defs>
</svg>
