<svg width="50" height="50" viewBox="0 0 30 30" fill="none" xmlns="http://www.w3.org/2000/svg">
    <circle cx="15" cy="15" r="15" fill="#FCE3E3" />
    <path
        d="M23.25 20.25C23.25 20.6478 23.092 21.0294 22.8107 21.3107C22.5294 21.592 22.1478 21.75 21.75 21.75H8.25C7.85218 21.75 7.47064 21.592 7.18934 21.3107C6.90804 21.0294 6.75 20.6478 6.75 20.25V12C6.75 11.6022 6.90804 11.2206 7.18934 10.9393C7.47064 10.658 7.85218 10.5 8.25 10.5H11.25L12.75 8.25H17.25L18.75 10.5H21.75C22.1478 10.5 22.5294 10.658 22.8107 10.9393C23.092 11.2206 23.25 11.6022 23.25 12V20.25Z"
        fill="#FF5858" />
    <path
        d="M15 18.75C16.6569 18.75 18 17.4069 18 15.75C18 14.0931 16.6569 12.75 15 12.75C13.3431 12.75 12 14.0931 12 15.75C12 17.4069 13.3431 18.75 15 18.75Z"
        fill="#FCE3E3" />
    <circle cx="15" cy="15.75" r="1.5" fill="#FF5858" />
</svg>