<svg width="30" height="30" viewBox="0 0 30 30" fill="none" xmlns="http://www.w3.org/2000/svg">
<rect width="30" height="30" rx="5" fill="#3EA2E5" fill-opacity="0.1"/>
<path d="M23.3332 19.1V21.6C23.3341 21.8321 23.2866 22.0618 23.1936 22.2745C23.1006 22.4871 22.9643 22.678 22.7933 22.8349C22.6222 22.9918 22.4203 23.1112 22.2005 23.1856C21.9806 23.2599 21.7477 23.2876 21.5165 23.2667C18.9522 22.988 16.489 22.1118 14.3249 20.7083C12.3114 19.4289 10.6043 17.7218 9.32486 15.7083C7.91651 13.5343 7.04007 11.0592 6.76653 8.48334C6.7457 8.2529 6.77309 8.02064 6.84695 7.80136C6.9208 7.58208 7.03951 7.38058 7.1955 7.20969C7.3515 7.0388 7.54137 6.90227 7.75302 6.80878C7.96468 6.71529 8.19348 6.66689 8.42486 6.66668H10.9249C11.3293 6.6627 11.7214 6.80591 12.028 7.06962C12.3346 7.33333 12.5349 7.69955 12.5915 8.10001C12.697 8.90006 12.8927 9.68562 13.1749 10.4417C13.287 10.7399 13.3112 11.0641 13.2448 11.3757C13.1783 11.6874 13.0239 11.9734 12.7999 12.2L11.7415 13.2583C12.9278 15.3446 14.6552 17.072 16.7415 18.2583L17.7999 17.2C18.0264 16.976 18.3125 16.8215 18.6241 16.7551C18.9358 16.6886 19.2599 16.7129 19.5582 16.825C20.3143 17.1071 21.0998 17.3028 21.8999 17.4083C22.3047 17.4655 22.6744 17.6693 22.9386 17.9813C23.2029 18.2932 23.3433 18.6913 23.3332 19.1Z" fill="#3EA2E5"/>
</svg>
