<svg width="50" height="50" viewBox="0 0 30 30" fill="none" xmlns="http://www.w3.org/2000/svg">
    <circle cx="15" cy="15" r="15" fill="#E3FAFC" />
    <path
        d="M16.5 7.5H10.5C10.1022 7.5 9.72064 7.65804 9.43934 7.93934C9.15804 8.22064 9 8.60218 9 9V21C9 21.3978 9.15804 21.7794 9.43934 22.0607C9.72064 22.342 10.1022 22.5 10.5 22.5H19.5C19.8978 22.5 20.2794 22.342 20.5607 22.0607C20.842 21.7794 21 21.3978 21 21V12L16.5 7.5Z"
        fill="#61F2FF" />
    <path d="M16.5 7.5V12H21" fill="#61F2FF" />
    <path d="M16.5 7.5V12H21" stroke="#E3FAFC" stroke-width="2" stroke-linecap="round" stroke-linejoin="round" />
    <path d="M18 15.75H12" stroke="#E3FAFC" stroke-width="2" stroke-linecap="round" stroke-linejoin="round" />
    <path d="M18 18.75H12" stroke="#E3FAFC" stroke-width="2" stroke-linecap="round" stroke-linejoin="round" />
    <path d="M13.5 12.75H12.75H12" stroke="#E3FAFC" stroke-width="2" stroke-linecap="round" stroke-linejoin="round" />
</svg>