<svg width="20" height="20" viewBox="0 0 20 20" fill="none" xmlns="http://www.w3.org/2000/svg">
<rect width="20" height="20" fill="white"/>
<path d="M11.0708 12.7481L11.0693 12.7474C10.9469 12.6862 10.8367 12.631 10.7435 12.5732C9.75467 11.9451 8.85436 11.1257 7.98907 10.0626C7.59113 9.55954 7.31965 9.13512 7.12056 8.71085C7.3526 8.49561 7.5707 8.27428 7.78134 8.06052C7.80555 8.03595 7.82966 8.01149 7.85368 7.98714C7.90119 7.93963 7.94864 7.89134 7.99573 7.84341L7.99591 7.84322C8.04324 7.79504 8.09021 7.74724 8.13712 7.70033C8.50725 7.3302 8.69828 6.89885 8.69828 6.46119C8.69828 6.02354 8.50725 5.59219 8.13712 5.22206L7.21522 4.30016C7.11032 4.19526 7.00342 4.08835 6.9034 3.98166L6.90341 3.98166L6.90231 3.98052C6.69984 3.7713 6.4859 3.55392 6.26468 3.34964C5.92112 3.01017 5.5054 2.82554 5.06431 2.82554C4.62295 2.82554 4.20048 3.01037 3.84689 3.34981L3.84688 3.34979L3.84544 3.35124L3.83868 3.35799L3.83868 3.35799L3.83837 3.3583L2.69052 4.51628C2.69047 4.51633 2.69042 4.51639 2.69037 4.51644C2.24162 4.96525 1.98492 5.51391 1.92883 6.14846H1.92882L1.92877 6.14908C1.84586 7.15787 2.14289 8.09352 2.36692 8.69772C2.91861 10.1859 3.74223 11.5633 4.96717 13.0359L4.96738 13.0361C6.45536 14.8129 8.24622 16.2165 10.2922 17.2055L10.2929 17.2058C11.072 17.575 12.1229 18.0177 13.301 18.0933L13.3027 18.0933C13.3733 18.0967 13.4499 18.1002 13.5202 18.1002C14.3271 18.1002 15.0092 17.809 15.5422 17.2305L15.5518 17.2201L15.5529 17.2179C15.5537 17.217 15.5546 17.216 15.5555 17.215C15.5578 17.2121 15.5606 17.2087 15.5634 17.2045C15.7213 17.014 15.9016 16.8396 16.0964 16.6512C16.1117 16.6365 16.127 16.6216 16.1424 16.6067C16.2881 16.4679 16.4377 16.3216 16.5842 16.1683C16.9336 15.8048 17.1221 15.3756 17.1221 14.9306C17.1221 14.4816 16.9297 14.0551 16.5726 13.7014C16.5725 13.7013 16.5724 13.7013 16.5724 13.7012L14.7196 11.8416C14.3761 11.4844 13.9562 11.2881 13.5067 11.2881C13.0606 11.2881 12.6377 11.4809 12.281 11.8375L11.2663 12.849C11.2292 12.8296 11.1921 12.8106 11.1559 12.792C11.1269 12.7771 11.0984 12.7625 11.0708 12.7481ZM15.922 15.3951C15.9023 15.4188 15.881 15.4425 15.8583 15.4662L15.857 15.4649V15.369C15.8653 15.3692 15.8746 15.3704 15.8845 15.3735C15.8969 15.3774 15.9102 15.3843 15.922 15.3951ZM15.4529 15.7322C15.4276 15.7569 15.4018 15.7819 15.3756 15.8075C15.1562 16.0168 14.9309 16.2385 14.7186 16.4883C14.3976 16.8307 14.023 16.9918 13.5235 16.9918C13.4722 16.9918 13.4216 16.9918 13.3749 16.9886L13.3746 16.9886C12.3918 16.9258 11.4743 16.5413 10.7775 16.2081C8.87933 15.2891 7.21235 13.9845 5.82666 12.3305C4.68085 10.9494 3.91743 9.6759 3.41221 8.31082L3.41211 8.31054C3.10123 7.47819 2.99083 6.8384 3.03986 6.23989C3.07166 5.86829 3.21342 5.56284 3.47694 5.29932L4.62734 4.14892C4.78098 4.00505 4.93291 3.93731 5.07106 3.93731C5.24368 3.93731 5.39154 4.04256 5.49339 4.14441L5.5641 4.0737L5.49339 4.14441L5.50352 4.15454L5.50348 4.15458L5.50595 4.15689C5.71002 4.34758 5.90443 4.54531 6.11023 4.75786L6.11025 4.75788C6.16292 4.81225 6.21639 4.86656 6.26995 4.92097L6.27119 4.92222C6.32443 4.97631 6.37778 5.0305 6.4311 5.08548L6.43109 5.08549L6.43217 5.08657L7.35408 6.00848C7.52356 6.17795 7.59326 6.3262 7.59326 6.46119C7.59326 6.59618 7.52356 6.74443 7.35408 6.91391C7.32041 6.94758 7.28757 6.9808 7.25511 7.01364C7.19148 7.07802 7.12927 7.14096 7.06491 7.2031L7.06488 7.20307L7.06284 7.20516C6.77956 7.49518 6.51127 7.76342 6.22001 8.02455L6.21991 8.02444L6.21711 8.02724L6.21577 8.02835L6.21197 8.03153C6.20818 8.03478 6.20042 8.04154 6.19249 8.05192C6.03696 8.21004 5.96872 8.37167 5.95104 8.5244C5.93342 8.6766 5.96706 8.81168 5.99892 8.91257L5.99891 8.91258L5.99941 8.91408L6.00447 8.92928L6.00954 8.94448L6.00931 8.94455L6.01197 8.95101C6.25626 9.5428 6.59952 10.0978 7.1166 10.7544L7.11604 10.7548L7.12417 10.7629C8.061 11.9163 9.05053 12.8176 10.1437 13.5089C10.2865 13.5994 10.4321 13.6722 10.5661 13.7392L10.5679 13.7401C10.6905 13.8015 10.8009 13.8568 10.8942 13.9146L10.894 13.915L10.9022 13.9191C10.904 13.92 10.9066 13.9216 10.9142 13.9263C10.9201 13.93 10.931 13.9369 10.9427 13.9428C11.0696 14.0062 11.1928 14.0377 11.3218 14.0377C11.6435 14.0377 11.8441 13.8371 11.9047 13.7766L11.9058 13.7754L13.0607 12.6205C13.171 12.5102 13.3287 12.3965 13.4999 12.3965C13.6676 12.3965 13.815 12.5037 13.9123 12.6104L13.9122 12.6105L13.9155 12.6138L13.9188 12.6171L13.9222 12.6205L15.7829 14.4812L15.7833 14.4816C15.9456 14.6423 16.0146 14.7931 16.0149 14.9342C16.0153 15.0732 15.949 15.2247 15.7935 15.3892C15.7873 15.394 15.7809 15.4001 15.7751 15.4078C15.7742 15.409 15.7732 15.4104 15.7721 15.4119C15.6696 15.5216 15.565 15.6232 15.4529 15.7322ZM6.21749 8.02693L6.21725 8.02715L6.21749 8.02693Z" fill="black" stroke="black" stroke-width="0.2"/>
<path d="M14.728 9.81583L14.728 9.8159L14.7316 9.81531C15.0376 9.76569 15.2383 9.4766 15.1892 9.17379L15.189 9.17301C15.0032 8.08189 14.4868 7.08717 13.699 6.29934C12.9111 5.51151 11.9164 4.99512 10.8253 4.80926L10.8253 4.80925L10.8245 4.80913C10.521 4.75991 10.2368 4.96116 10.1833 5.26177C10.13 5.56094 10.3265 5.85482 10.6335 5.90477C11.4972 6.04988 12.282 6.4586 12.9092 7.08576C13.5361 7.71274 13.9417 8.49758 14.0902 9.36179C14.1357 9.63434 14.3712 9.82336 14.6379 9.82336C14.6689 9.82336 14.6968 9.8198 14.72 9.81685C14.7227 9.8165 14.7254 9.81616 14.728 9.81583Z" fill="black" stroke="black" stroke-width="0.2"/>
<path d="M10.3115 2.36113L10.3115 2.36112L10.3113 2.36265C10.262 2.66657 10.4638 2.95059 10.7675 3.00395L10.7681 3.00405C12.321 3.26731 13.7374 4.00368 14.8644 5.12731C15.9912 6.25414 16.7243 7.67047 16.9876 9.22341C17.0331 9.496 17.2686 9.68505 17.5353 9.68505C17.5663 9.68505 17.5942 9.6815 17.6174 9.67854C17.6201 9.67819 17.6228 9.67785 17.6254 9.67753L17.6254 9.67756L17.6279 9.67718C17.9303 9.63162 18.1363 9.34267 18.0831 9.04144C17.779 7.2581 16.9385 5.63527 15.6474 4.34424C14.3565 3.05331 12.7338 2.21279 10.9506 1.90868C10.6478 1.85496 10.3647 2.06242 10.3115 2.36113Z" fill="black" stroke="black" stroke-width="0.2"/>
</svg>
