<svg width="30" height="30" viewBox="0 0 22 22" fill="none" xmlns="http://www.w3.org/2000/svg">
    <path
        d="M0 5C0 2.23858 2.23858 0 5 0H17C19.7614 0 22 2.23858 22 5V17C22 19.7614 19.7614 22 17 22H5C2.23858 22 0 19.7614 0 17V5Z"
        fill="#3EA2E5" fill-opacity="0.1" />
    <path
        d="M16 13.46V14.96C16.0005 15.0993 15.972 15.2371 15.9162 15.3647C15.8604 15.4923 15.7786 15.6068 15.676 15.701C15.5734 15.7951 15.4523 15.8668 15.3203 15.9114C15.1884 15.956 15.0487 15.9726 14.91 15.96C13.3714 15.7928 11.8935 15.2671 10.595 14.425C9.38688 13.6574 8.36264 12.6331 7.59497 11.425C6.74996 10.1206 6.22409 8.63552 6.05997 7.09002C6.04747 6.95175 6.0639 6.8124 6.10822 6.68083C6.15253 6.54926 6.22375 6.42836 6.31735 6.32583C6.41095 6.22329 6.52487 6.14137 6.65186 6.08528C6.77886 6.02919 6.91614 6.00015 7.05497 6.00002H8.55497C8.79762 5.99763 9.03286 6.08356 9.21685 6.24178C9.40083 6.40001 9.52101 6.61974 9.55497 6.86002C9.61828 7.34005 9.73569 7.81138 9.90497 8.26502C9.97224 8.44398 9.9868 8.63848 9.94692 8.82546C9.90704 9.01244 9.8144 9.18407 9.67997 9.32002L9.04497 9.95502C9.75675 11.2068 10.7932 12.2432 12.045 12.955L12.68 12.32C12.8159 12.1856 12.9875 12.0929 13.1745 12.0531C13.3615 12.0132 13.556 12.0277 13.735 12.095C14.1886 12.2643 14.6599 12.3817 15.14 12.445C15.3829 12.4793 15.6047 12.6016 15.7632 12.7888C15.9218 12.9759 16.0061 13.2148 16 13.46Z"
        fill="#3EA2E5" />
</svg>