<svg width="32" height="32" viewBox="0 0 32 32" fill="none" xmlns="http://www.w3.org/2000/svg">
<rect width="32" height="32" rx="5" fill="#202228" fill-opacity="0.1"/>
<path d="M24.889 20.3733V23.04C24.89 23.2875 24.8393 23.5326 24.7401 23.7594C24.641 23.9862 24.4955 24.1898 24.3131 24.3572C24.1307 24.5246 23.9153 24.652 23.6808 24.7313C23.4463 24.8106 23.1978 24.84 22.9512 24.8178C20.216 24.5206 17.5886 23.5859 15.2801 22.0889C13.1324 20.7241 11.3115 18.9033 9.9468 16.7555C8.44456 14.4366 7.50968 11.7964 7.21791 9.04888C7.1957 8.80307 7.22491 8.55533 7.30369 8.32143C7.38246 8.08754 7.50908 7.8726 7.67548 7.69032C7.84187 7.50804 8.0444 7.3624 8.27017 7.26268C8.49593 7.16295 8.73999 7.11133 8.9868 7.1111H11.6535C12.0848 7.10686 12.5031 7.25962 12.8301 7.54091C13.1572 7.8222 13.3709 8.21283 13.4312 8.63999C13.5438 9.49338 13.7525 10.3313 14.0535 11.1378C14.1731 11.4559 14.1989 11.8017 14.128 12.1341C14.0572 12.4665 13.8925 12.7716 13.6535 13.0133L12.5246 14.1422C13.79 16.3676 15.6325 18.2102 17.8579 19.4755L18.9868 18.3467C19.2285 18.1077 19.5336 17.943 19.866 17.8721C20.1984 17.8012 20.5442 17.8271 20.8624 17.9467C21.6688 18.2476 22.5067 18.4563 23.3601 18.5689C23.7919 18.6298 24.1863 18.8473 24.4682 19.18C24.7501 19.5127 24.8998 19.9374 24.889 20.3733Z" fill="#202228"/>
</svg>
