<?xml version="1.0" standalone="no"?>
<!DOCTYPE svg PUBLIC "-//W3C//DTD SVG 20010904//EN" "http://www.w3.org/TR/2001/REC-SVG-20010904/DTD/svg10.dtd">
<svg version="1.0" xmlns="http://www.w3.org/2000/svg" width="15" height="15" viewBox="0 0 512.000000 512.000000"
    preserveAspectRatio="xMidYMid meet">
    <metadata>
        Created by potrace 1.16, written by Peter Selinger 2001-2019
    </metadata>
    <g transform="translate(0.000000,512.000000) scale(0.100000,-0.100000)" fill="#000000" stroke="none">
        <path d="M772 5105 c-19 -8 -145 -81 -280 -162 -160 -97 -263 -165 -295 -197
-68 -68 -124 -157 -147 -236 -66 -219 -67 -564 -4 -829 165 -686 643 -1413
1465 -2228 651 -645 1222 -1056 1779 -1281 300 -120 543 -172 812 -172 323 0
503 55 644 197 47 48 324 492 360 579 11 26 15 59 12 105 -6 118 11 103 -627
528 -604 403 -615 409 -706 392 -90 -17 -97 -24 -332 -326 -168 -215 -198
-239 -293 -240 -48 0 -69 8 -165 59 -328 175 -614 403 -1000 797 -343 350
-528 586 -684 873 -75 139 -88 182 -72 242 20 72 48 101 253 259 281 219 292
230 309 320 17 91 11 102 -392 706 -428 643 -410 622 -533 627 -47 1 -82 -3
-104 -13z" />
        <path d="M2875 4496 c-54 -23 -71 -93 -35 -139 23 -29 29 -30 206 -47 371 -34
681 -184 944 -456 245 -254 380 -558 412 -928 10 -119 15 -143 34 -165 31 -36
94 -36 130 1 25 24 26 30 25 124 -10 657 -460 1281 -1090 1514 -209 77 -550
129 -626 96z" />
        <path d="M2875 3966 c-55 -24 -71 -96 -32 -142 21 -24 33 -27 118 -35 213 -20
349 -67 504 -177 242 -170 389 -433 411 -736 6 -71 11 -94 29 -114 32 -37 94
-37 132 0 25 25 26 32 25 110 -9 390 -243 770 -593 962 -138 76 -279 118 -448
135 -123 13 -109 13 -146 -3z" />
        <path d="M2875 3437 c-55 -25 -71 -97 -32 -142 17 -21 36 -28 92 -36 130 -18
209 -54 286 -131 67 -68 108 -154 124 -264 17 -115 53 -149 129 -124 46 15 60
44 58 121 -6 196 -117 383 -296 496 -103 66 -297 108 -361 80z" />
    </g>
</svg>