<svg width="34" height="34" viewBox="0 0 34 34" fill="none" xmlns="http://www.w3.org/2000/svg">
<path d="M0 8C0 3.58172 3.58172 0 8 0H26C30.4183 0 34 3.58172 34 8V26C34 30.4183 30.4183 34 26 34H8C3.58172 34 0 30.4183 0 26V8Z" fill="#040404"/>
<path d="M23.7749 21.9151L22.7333 12.1152C22.7333 11.499 22.256 11 21.6667 11H17.4H13.1333C12.544 11 12.0667 11.499 12.0667 12.1152L11.0251 21.9151C11.0096 21.9915 11 22.0701 11 22.1515C11 22.7676 11.4773 23.2667 12.0667 23.2667H17.4H22.7333C23.3227 23.2667 23.8 22.7676 23.8 22.1515C23.8 22.0701 23.7904 21.9915 23.7749 21.9151ZM20.0667 13.7366V14.3455C20.0667 15.8827 18.8704 17.1333 17.4 17.1333C15.9296 17.1333 14.7333 15.8827 14.7333 14.3455V13.7366C14.4235 13.6217 14.2 13.3151 14.2 12.9515C14.2 12.4898 14.5584 12.1152 15 12.1152C15.4416 12.1152 15.8 12.4898 15.8 12.9515V14.3455C15.8 15.2677 16.5179 16.0182 17.4 16.0182C18.2821 16.0182 19 15.2677 19 14.3455V12.9515C19 12.4898 19.3584 12.1152 19.8 12.1152C20.2416 12.1152 20.6 12.4898 20.6 12.9515C20.6 13.3151 20.3765 13.6217 20.0667 13.7366Z" fill="#F9F9F9"/>
</svg>
