<svg width="26" height="26" viewBox="0 0 22 22" fill="none" xmlns="http://www.w3.org/2000/svg">
    <path
        d="M0 5C0 2.23858 2.23858 0 5 0H17C19.7614 0 22 2.23858 22 5V17C22 19.7614 19.7614 22 17 22H5C2.23858 22 0 19.7614 0 17V5Z"
        fill="#F45858" fill-opacity="0.1" />
    <path
        d="M15.5 12.5C15.5 12.7652 15.3946 13.0196 15.2071 13.2071C15.0196 13.3946 14.7652 13.5 14.5 13.5H8.5L6.5 15.5V7.5C6.5 7.23478 6.60536 6.98043 6.79289 6.79289C6.98043 6.60536 7.23478 6.5 7.5 6.5H14.5C14.7652 6.5 15.0196 6.60536 15.2071 6.79289C15.3946 6.98043 15.5 7.23478 15.5 7.5V12.5Z"
        fill="#F45858" />
</svg>