<svg width="30" height="30" viewBox="0 0 30 30" fill="none" xmlns="http://www.w3.org/2000/svg">
<circle cx="15" cy="15" r="15" fill="#EFFCE3"/>
<g clip-path="url(#clip0)">
<path d="M23.25 11.25V6.75H18.75" stroke="#A1FF49" stroke-width="2" stroke-linecap="round" stroke-linejoin="round"/>
<path d="M18 12L23.25 6.75" stroke="#A1FF49" stroke-width="2" stroke-linecap="round" stroke-linejoin="round"/>
<path d="M22.5001 18.69V20.94C22.5009 21.1489 22.4581 21.3556 22.3745 21.547C22.2908 21.7384 22.168 21.9102 22.0141 22.0514C21.8602 22.1926 21.6785 22.3001 21.4806 22.367C21.2828 22.4339 21.0731 22.4588 20.8651 22.44C18.5572 22.1892 16.3403 21.4006 14.3926 20.1375C12.5804 18.986 11.0441 17.4496 9.89257 15.6375C8.62506 13.6809 7.83625 11.4532 7.59007 9.135C7.57133 8.9276 7.59598 8.71857 7.66245 8.52121C7.72892 8.32386 7.83575 8.14251 7.97615 7.98871C8.11654 7.83491 8.28743 7.71203 8.47792 7.62789C8.6684 7.54375 8.87433 7.50019 9.08257 7.5H11.3326C11.6966 7.49641 12.0494 7.62531 12.3254 7.86265C12.6014 8.09999 12.7816 8.42958 12.8326 8.79C12.9275 9.51005 13.1037 10.217 13.3576 10.8975C13.4585 11.1659 13.4803 11.4577 13.4205 11.7382C13.3607 12.0186 13.2217 12.2761 13.0201 12.48L12.0676 13.4325C13.1352 15.3102 14.6899 16.8648 16.5676 17.9325L17.5201 16.98C17.724 16.7783 17.9814 16.6394 18.2619 16.5796C18.5424 16.5197 18.8341 16.5416 19.1026 16.6425C19.783 16.8964 20.49 17.0725 21.2101 17.1675C21.5744 17.2189 21.9071 17.4024 22.145 17.6831C22.3828 17.9638 22.5092 18.3222 22.5001 18.69Z" fill="#8EFF26"/>
</g>
<defs>
<clipPath id="clip0">
<rect width="18" height="18" fill="white" transform="translate(6 6)"/>
</clipPath>
</defs>
</svg>
