<svg width="18" height="18" viewBox="0 0 18 18" fill="none" xmlns="http://www.w3.org/2000/svg">
<g clip-path="url(#clip0)">
<path d="M16.3086 4.02333L15.9112 2.832C15.7598 2.37827 15.3367 2.07339 14.8586 2.07339H11.5183V0.985886C11.5183 0.442337 11.0764 0 10.533 0H7.47409C6.93082 0 6.48876 0.442337 6.48876 0.985886V2.07339H3.14864C2.67032 2.07339 2.24721 2.37827 2.09588 2.832L1.69844 4.02333C1.60794 4.29456 1.65381 4.59489 1.82094 4.82684C1.98807 5.05879 2.25847 5.19736 2.54439 5.19736H2.95981L3.87415 16.5038C3.94213 17.3427 4.65404 18 5.49518 18H12.6974C13.5384 18 14.2505 17.3427 14.3183 16.5037L15.2326 5.19736H15.4627C15.7486 5.19736 16.019 5.05879 16.1861 4.82698C16.3532 4.59503 16.3991 4.29456 16.3086 4.02333V4.02333ZM7.54345 1.05469H10.4636V2.07339H7.54345V1.05469ZM13.267 16.4187C13.2432 16.7141 12.9929 16.9453 12.6974 16.9453H5.49518C5.19965 16.9453 4.94944 16.7141 4.92554 16.4187L4.01793 5.19736H14.1745L13.267 16.4187ZM2.77057 4.14267L3.09645 3.16571C3.10387 3.14319 3.12488 3.12808 3.14864 3.12808H14.8586C14.8823 3.12808 14.9032 3.14319 14.9107 3.16571L15.2366 4.14267H2.77057Z" fill="white"/>
<path d="M11.5844 16.3813C11.5937 16.3818 11.6029 16.3819 11.6123 16.3819C11.8909 16.3819 12.1238 16.1636 12.1384 15.8821L12.6336 6.37587C12.6487 6.085 12.4251 5.83685 12.1344 5.82174C11.8428 5.80623 11.5955 6.03007 11.5803 6.32094L11.0852 15.8271C11.0701 16.118 11.2935 16.3661 11.5844 16.3813V16.3813Z" fill="white"/>
<path d="M5.89092 15.8833C5.90631 16.1644 6.13894 16.382 6.41703 16.382C6.42664 16.382 6.43653 16.3817 6.44628 16.3811C6.737 16.3654 6.95989 16.1168 6.9441 15.8259L6.42541 6.31973C6.40961 6.02886 6.16105 5.80598 5.87019 5.82191C5.57946 5.8377 5.35658 6.08627 5.37237 6.37713L5.89092 15.8833Z" fill="white"/>
<path d="M9.00879 16.382C9.30006 16.382 9.53613 16.1459 9.53613 15.8546V6.34845C9.53613 6.05717 9.30006 5.82111 9.00879 5.82111C8.71751 5.82111 8.48145 6.05717 8.48145 6.34845V15.8546C8.48145 16.1459 8.71751 16.382 9.00879 16.382Z" fill="white"/>
</g>
<defs>
<clipPath id="clip0">
<rect width="18" height="18" fill="white"/>
</clipPath>
</defs>
</svg>
