<svg width="25" height="25" viewBox="0 0 15 15" fill="none" xmlns="http://www.w3.org/2000/svg">
<path d="M7.5 15C11.6421 15 15 11.6421 15 7.5C15 3.35786 11.6421 0 7.5 0C3.35786 0 0 3.35786 0 7.5C0 11.6421 3.35786 15 7.5 15Z" fill="#F8991D"/>
<path d="M9.06389 4.26375H5.93604V3.05672C5.93625 2.91427 5.99295 2.77773 6.0937 2.67703C6.19444 2.57632 6.33101 2.51969 6.47346 2.51953H8.52635C8.66884 2.51969 8.80546 2.57635 8.90623 2.6771C9.007 2.77785 9.0637 2.91446 9.06389 3.05695V4.26375ZM6.3892 3.81059H8.61072V3.05695C8.61066 3.03461 8.60175 3.01319 8.58593 2.9974C8.57012 2.98161 8.5487 2.97273 8.52635 2.9727H6.47346C6.45112 2.97273 6.42971 2.98161 6.41391 2.99741C6.39812 3.0132 6.38923 3.03462 6.3892 3.05695V3.81059Z" fill="white"/>
<path d="M10.8281 4.396V11.7884C10.8281 11.9719 10.7553 12.1478 10.6257 12.2776C10.496 12.4073 10.3202 12.4803 10.1367 12.4805H4.86387C4.68033 12.4805 4.50432 12.4076 4.37455 12.2778C4.24478 12.148 4.17187 11.972 4.17188 11.7884V4.396H10.8281Z" fill="white"/>
<path d="M4.32797 3.79175H10.672C10.8222 3.79181 10.9663 3.85152 11.0724 3.95775C11.1786 4.06398 11.2383 4.20803 11.2383 4.35823V5.18909H3.76172V4.35823C3.76172 4.20803 3.82137 4.06398 3.92756 3.95775C4.03374 3.85152 4.17777 3.79181 4.32797 3.79175V3.79175Z" fill="white"/>
<path d="M9.5957 6.65381C9.5957 6.51304 9.48159 6.39893 9.34082 6.39893C9.20005 6.39893 9.08594 6.51304 9.08594 6.65381V11.3932C9.08594 11.534 9.20005 11.6481 9.34082 11.6481C9.48159 11.6481 9.5957 11.534 9.5957 11.3932V6.65381Z" fill="#F8991D"/>
<path d="M7.75487 6.65381C7.75487 6.51304 7.64076 6.39893 7.49999 6.39893C7.35923 6.39893 7.24512 6.51304 7.24512 6.65381V11.3932C7.24512 11.534 7.35923 11.6481 7.49999 11.6481C7.64076 11.6481 7.75487 11.534 7.75487 11.3932V6.65381Z" fill="#F8991D"/>
<path d="M5.91406 6.65381C5.91406 6.51304 5.79995 6.39893 5.65918 6.39893C5.51841 6.39893 5.4043 6.51304 5.4043 6.65381V11.3932C5.4043 11.534 5.51841 11.6481 5.65918 11.6481C5.79995 11.6481 5.91406 11.534 5.91406 11.3932V6.65381Z" fill="#F8991D"/>
<path d="M4.17188 5.18896H10.8282V5.56666H4.17188V5.18896Z" fill="#F8991D"/>
</svg>
