<svg width="8" height="12" viewBox="0 0 16 21" fill="none" xmlns="http://www.w3.org/2000/svg">
<path d="M8.27148 0C4.12212 0 0.771484 3.35064 0.771484 7.5C0.771484 8.94675 1.23364 10.3282 1.87664 11.4634L6.76445 19.9229C7.07088 20.4755 7.68876 20.7517 8.27148 20.7517C8.85425 20.7517 9.44195 20.4755 9.77852 19.9229L14.6663 11.4685C15.3144 10.3331 15.7715 8.97679 15.7715 7.50492C15.7715 3.35566 12.4208 0 8.27148 0ZM8.27148 9.71534C6.76445 9.71534 5.53371 8.4846 5.53371 6.97756C5.53371 5.47053 6.76445 4.23979 8.27148 4.23979C9.77852 4.23979 11.0093 5.47053 11.0093 6.97756C11.0093 8.48962 9.77852 9.71534 8.27148 9.71534Z" fill="#444444"/>
</svg>
