<svg width="25" height="25" viewBox="0 0 15 15" fill="none" xmlns="http://www.w3.org/2000/svg">
<g clip-path="url(#clip0)">
<path d="M7.50073 0C3.35878 0 0.000976562 3.35805 0.000976562 7.49985C0.000976562 11.6416 3.35878 15 7.50073 15C11.6427 15 15.0009 11.6418 15.0009 7.49985C15.0009 3.35785 11.6427 0 7.50073 0ZM11.066 5.39725L10.3537 6.1096L8.90363 4.65965L8.35353 5.20975L9.80358 6.6598L6.24698 10.2161L4.79703 8.7663L4.24693 9.3164L5.69688 10.7663L5.34248 11.1207L5.33573 11.114C5.29643 11.1787 5.23253 11.2259 5.15663 11.2427L3.80448 11.5442C3.78423 11.5488 3.76363 11.551 3.74328 11.551C3.66948 11.551 3.59778 11.522 3.54463 11.4687C3.47643 11.4007 3.44803 11.3026 3.46903 11.2085L3.77038 9.85675C3.78738 9.7809 3.83468 9.71685 3.89928 9.67765L3.89243 9.6708L9.61593 3.94705C9.69983 3.8633 9.83613 3.8633 9.92003 3.9473L11.0661 5.09315C11.15 5.17705 11.15 5.31335 11.066 5.39725Z" fill="#098B4D"/>
</g>
<defs>
<clipPath id="clip0">
<rect width="15" height="15" fill="white"/>
</clipPath>
</defs>
</svg>
