<svg width="20" height="20" viewBox="0 0 16 16" fill="none" xmlns="http://www.w3.org/2000/svg">
    <g clip-path="url(#clip0)">
        <path
            d="M15.1169 16.0001C15.6046 16.0001 16 15.6047 16 15.117V0.883062C16 0.395312 15.6046 0 15.1169 0H0.883062C0.39525 0 0 0.395312 0 0.883062V15.117C0 15.6047 0.39525 16.0001 0.883062 16.0001H15.1169"
            fill="#395185" />
        <path
            d="M11.0397 16V9.80394H13.1196L13.4309 7.38925H11.0397V5.8475C11.0397 5.14838 11.2339 4.67194 12.2365 4.67194L13.5152 4.67138V2.51169C13.2939 2.48225 12.5349 2.4165 11.6519 2.4165C9.80831 2.4165 8.54619 3.54182 8.54619 5.60844V7.38925H6.46106V9.80394H8.54619V16H11.0397"
            fill="white" />
    </g>
    <defs>
        <clipPath id="clip0">
            <rect width="16" height="16" fill="white" />
        </clipPath>
    </defs>
</svg>