<svg width="32" height="36" viewBox="0 0 32 36" fill="none" xmlns="http://www.w3.org/2000/svg">
<path d="M15.8645 0C13.3231 0 10.8857 1.00959 9.08864 2.80667C7.29157 4.60375 6.28198 7.04111 6.28198 9.58257C6.22644 18.7249 15.8645 30.0628 15.8645 30.0628C15.8645 30.0628 25.5026 18.7249 25.4471 9.58257C25.4471 7.04111 24.4375 4.60375 22.6404 2.80667C20.8433 1.00959 18.406 0 15.8645 0V0ZM15.8645 13.6472C15.0606 13.6472 14.2748 13.4088 13.6063 12.9622C12.9379 12.5156 12.4169 11.8808 12.1093 11.138C11.8016 10.3953 11.7212 9.57806 11.878 8.78959C12.0348 8.00113 12.4219 7.27688 12.9904 6.70843C13.5588 6.13997 14.2831 5.75285 15.0716 5.59602C15.86 5.43918 16.6773 5.51968 17.42 5.82732C18.1627 6.13496 18.7975 6.65594 19.2442 7.32437C19.6908 7.9928 19.9292 8.77866 19.9292 9.58257C19.9292 10.6606 19.5009 11.6944 18.7387 12.4567C17.9764 13.219 16.9425 13.6472 15.8645 13.6472Z" fill="#F45858"/>
<path d="M20.0066 24.3301C18.7458 26.3248 17.3624 28.2393 15.8646 30.0627C14.3669 28.2393 12.9838 26.3248 11.7232 24.3301C4.96974 25.0118 0 27.32 0 30.0627C0 33.3418 7.10316 35.9999 15.8652 35.9999C24.6272 35.9999 31.7304 33.3418 31.7304 30.0627C31.7297 27.32 26.76 25.0115 20.0066 24.3301Z" fill="#3EA2E5"/>
<path d="M11.3317 33.3789C11.3084 33.379 11.285 33.3775 11.2618 33.3745C8.68852 33.0454 6.59006 32.4454 5.35363 31.6851C5.29122 31.6482 5.23677 31.5992 5.19348 31.5411C5.15018 31.4829 5.1189 31.4167 5.10147 31.3463C5.08404 31.276 5.08079 31.2028 5.09193 31.1312C5.10307 31.0595 5.12836 30.9908 5.16634 30.9291C5.20432 30.8673 5.25422 30.8137 5.31312 30.7715C5.37203 30.7292 5.43877 30.6991 5.50944 30.6829C5.58011 30.6667 5.6533 30.6647 5.72474 30.6771C5.79617 30.6895 5.86443 30.716 5.92552 30.755C7.03278 31.4355 8.97743 31.9815 11.4004 32.2916C11.5376 32.3097 11.6628 32.3792 11.7507 32.486C11.8386 32.5929 11.8827 32.7292 11.874 32.8673C11.8653 33.0054 11.8044 33.1351 11.7038 33.2301C11.6031 33.325 11.4701 33.3782 11.3317 33.3789V33.3789Z" fill="#1892D6"/>
<path d="M15.8646 33.6554C15.3819 33.6554 14.8943 33.6463 14.4144 33.6288C14.3427 33.6262 14.2722 33.6095 14.207 33.5796C14.1418 33.5497 14.0831 33.5073 14.0342 33.4547C13.9854 33.4021 13.9474 33.3405 13.9224 33.2732C13.8974 33.206 13.8859 33.1344 13.8886 33.0627C13.8912 32.991 13.9079 32.9206 13.9378 32.8553C13.9677 32.7901 14.0101 32.7314 14.0627 32.6826C14.1153 32.6337 14.1769 32.5957 14.2442 32.5707C14.3115 32.5457 14.383 32.5342 14.4547 32.5369C15.2281 32.5653 16.0206 32.5681 16.7815 32.5518C16.8535 32.5493 16.9252 32.5612 16.9924 32.5867C17.0597 32.6123 17.1212 32.6511 17.1732 32.7008C17.2253 32.7504 17.2669 32.81 17.2956 32.876C17.3243 32.942 17.3395 33.0131 17.3403 33.085C17.3437 33.2298 17.2894 33.37 17.1894 33.4747C17.0894 33.5794 16.9519 33.6402 16.8071 33.6435C16.4964 33.6514 16.1822 33.6554 15.8646 33.6554V33.6554Z" fill="#1892D6"/>
</svg>
