<svg width="18" height="18" viewBox="0 0 18 18" fill="none" xmlns="http://www.w3.org/2000/svg">
<g opacity="0.85">
<path d="M14.4989 0H3.50123C1.67106 0 0.1875 1.48363 0.1875 3.31373V10.5268C0.1875 12.357 1.67113 13.8406 3.50123 13.8406H5.07954C5.15463 13.8406 5.21549 13.9014 5.21549 13.9765V17.5346C5.21549 17.9552 5.73007 18.1592 6.01825 17.8527L9.75142 13.8834C9.77712 13.856 9.81298 13.8406 9.8505 13.8406H14.4989C16.329 13.8406 17.8126 12.3569 17.8126 10.5268V3.31373C17.8126 1.48363 16.329 0 14.4989 0Z" fill="#202222"/>
<path d="M6.60961 12.6039C6.60961 12.5248 6.55069 12.4607 6.47798 12.4607H4.95002C3.17828 12.4607 1.74201 10.8984 1.74201 8.9712V1.37543C1.74201 1.04932 1.78328 0.733722 1.86017 0.434296C0.86099 1.00502 0.1875 2.0807 0.1875 3.31374V10.5268C0.1875 12.3569 1.67113 13.8406 3.50123 13.8406H5.07954C5.15463 13.8406 5.21549 13.9015 5.21549 13.9765V17.5346C5.21549 17.9553 5.73007 18.1592 6.01825 17.8527L6.60957 17.224V12.6039H6.60961Z" fill="#202228"/>
<path d="M12.7235 4.3005C11.8822 3.45918 10.5181 3.45918 9.67676 4.3005L9.20152 4.77575C9.08821 4.88906 8.90445 4.88906 8.79114 4.77575L8.32349 4.3081C7.48217 3.46677 6.1181 3.46677 5.27675 4.3081C4.43542 5.14942 4.43542 6.51349 5.27675 7.35485L8.79142 10.8695C8.90473 10.9828 9.08849 10.9828 9.2018 10.8695L12.7235 7.34726C13.5648 6.5059 13.5648 5.14187 12.7235 4.3005Z" fill="#202222"/>
<path d="M12.7235 4.3005C11.8822 3.45918 10.5181 3.45918 9.67676 4.3005L9.20152 4.77575C9.08821 4.88906 8.90445 4.88906 8.79114 4.77575L8.32349 4.3081C7.48217 3.46677 6.1181 3.46677 5.27675 4.3081C4.43542 5.14942 4.43542 6.51349 5.27675 7.35485L8.79142 10.8695C8.90473 10.9828 9.08849 10.9828 9.2018 10.8695L12.7235 7.34726C13.5648 6.5059 13.5648 5.14187 12.7235 4.3005Z" fill="#FFF5F5"/>
<path d="M6.40368 7.35484C5.56236 6.51351 5.56236 5.14945 6.40368 4.30809C6.67966 4.03211 7.01203 3.84726 7.36356 3.75238C6.64334 3.55789 5.84206 3.74274 5.27675 4.30809C4.43542 5.14942 4.43542 6.51348 5.27675 7.35484L8.79143 10.8695C8.90474 10.9828 9.0885 10.9828 9.20181 10.8695L9.56005 10.5112L6.40368 7.35484Z" fill="#DCE6EB"/>
</g>
</svg>
