<svg width="12" height="16" viewBox="0 0 12 16" fill="none" xmlns="http://www.w3.org/2000/svg">
<path d="M9 8H3V10H9V8ZM11.7812 3.28125L8.72188 0.21875C8.58125 0.078125 8.39063 0 8.19063 0H8V4H12V3.80938C12 3.6125 11.9219 3.42188 11.7812 3.28125ZM7 4.25V0H0.75C0.334375 0 0 0.334375 0 0.75V15.25C0 15.6656 0.334375 16 0.75 16H11.25C11.6656 16 12 15.6656 12 15.25V5H7.75C7.3375 5 7 4.6625 7 4.25ZM2 2.25C2 2.11187 2.11187 2 2.25 2H4.75C4.88813 2 5 2.11187 5 2.25V2.75C5 2.88813 4.88813 3 4.75 3H2.25C2.11187 3 2 2.88813 2 2.75V2.25ZM2 4.25C2 4.11187 2.11187 4 2.25 4H4.75C4.88813 4 5 4.11187 5 4.25V4.75C5 4.88813 4.88813 5 4.75 5H2.25C2.11187 5 2 4.88813 2 4.75V4.25ZM10 13.75C10 13.8881 9.88813 14 9.75 14H7.25C7.11187 14 7 13.8881 7 13.75V13.25C7 13.1119 7.11187 13 7.25 13H9.75C9.88813 13 10 13.1119 10 13.25V13.75ZM10 7.5V10.5C10 10.7763 9.77625 11 9.5 11H2.5C2.22375 11 2 10.7763 2 10.5V7.5C2 7.22375 2.22375 7 2.5 7H9.5C9.77625 7 10 7.22375 10 7.5Z" fill="black"/>
</svg>
