<svg width="20" height="20" viewBox="0 0 30 30" fill="none" xmlns="http://www.w3.org/2000/svg">
<path d="M9.74997 13.9499H6.59999C6.04304 13.9499 5.50889 14.1711 5.11507 14.565C4.72125 14.9588 4.5 15.493 4.5 16.0499V23.3999C4.5 23.9568 4.72125 24.491 5.11507 24.8848C5.50889 25.2787 6.04304 25.4999 6.59999 25.4999H9.74997M9.74997 13.9499L13.9499 4.5C14.7853 4.5 15.5865 4.83187 16.1773 5.42261C16.768 6.01335 17.0999 6.81455 17.0999 7.64998V11.85H23.0429C23.3472 11.8465 23.6488 11.9093 23.9266 12.0339C24.2043 12.1585 24.4516 12.3421 24.6513 12.5718C24.8511 12.8015 24.9985 13.072 25.0834 13.3643C25.1682 13.6566 25.1885 13.9639 25.1429 14.2649L23.6939 23.7149C23.618 24.2157 23.3636 24.6721 22.9776 25.0001C22.5918 25.3281 22.1003 25.5056 21.5939 25.4999H9.74997V13.9499ZM9.74997 13.9499V25.4999V13.9499Z" stroke="#FF2929" stroke-opacity="0.6" stroke-width="1.5" stroke-linecap="round" stroke-linejoin="round"/>
</svg>
