<svg width="32" height="42" viewBox="0 0 18 20" fill="none" xmlns="http://www.w3.org/2000/svg">
    <path
        d="M8.55429 0C7.19267 0 5.88682 0.540902 4.92401 1.50371C3.9612 2.46653 3.42029 3.77238 3.42029 5.134C3.39054 10.0321 8.55429 16.1066 8.55429 16.1066C8.55429 16.1066 13.718 10.0321 13.6883 5.134C13.6883 3.77238 13.1474 2.46653 12.1846 1.50371C11.2218 0.540902 9.91591 0 8.55429 0V0ZM8.55429 7.31169C8.12358 7.31169 7.70254 7.18398 7.34443 6.94469C6.98631 6.7054 6.70719 6.36529 6.54236 5.96737C6.37754 5.56945 6.33441 5.13158 6.41844 4.70915C6.50246 4.28672 6.70987 3.89869 7.01442 3.59414C7.31898 3.28958 7.70701 3.08217 8.12944 2.99815C8.55187 2.91412 8.98973 2.95725 9.38765 3.12207C9.78557 3.2869 10.1257 3.56602 10.365 3.92414C10.6043 4.28226 10.732 4.70329 10.732 5.134C10.732 5.71156 10.5025 6.26546 10.0941 6.67386C9.68575 7.08226 9.13185 7.31169 8.55429 7.31169Z"
        fill="#F45858" />
    <path
        d="M10.7735 13.0353C10.098 14.1039 9.35686 15.1297 8.55435 16.1066C7.75197 15.1297 7.01094 14.1039 6.33554 13.0353C2.7173 13.4005 0.0546875 14.6371 0.0546875 16.1066C0.0546875 17.8634 3.86031 19.2875 8.55469 19.2875C13.2491 19.2875 17.0547 17.8634 17.0547 16.1066C17.0544 14.6371 14.3917 13.4003 10.7735 13.0353Z"
        fill="#3EA2E5" />
    <path
        d="M6.12583 17.8832C6.11331 17.8833 6.1008 17.8825 6.08839 17.8809C4.7097 17.7045 3.58541 17.3831 2.92298 16.9757C2.88954 16.956 2.86037 16.9298 2.83717 16.8986C2.81398 16.8674 2.79722 16.832 2.78788 16.7943C2.77854 16.7566 2.7768 16.7174 2.78277 16.679C2.78874 16.6406 2.80229 16.6038 2.82264 16.5707C2.84298 16.5376 2.86972 16.5089 2.90128 16.4863C2.93284 16.4636 2.96859 16.4475 3.00645 16.4388C3.04432 16.4301 3.08353 16.4291 3.1218 16.4357C3.16008 16.4423 3.19665 16.4565 3.22937 16.4775C3.82261 16.842 4.86448 17.1345 6.1626 17.3007C6.23612 17.3104 6.30321 17.3476 6.35031 17.4049C6.39742 17.4621 6.42102 17.5351 6.41635 17.6091C6.41168 17.6831 6.37908 17.7526 6.32515 17.8035C6.27122 17.8544 6.19998 17.8829 6.12583 17.8832V17.8832Z"
        fill="#1892D6" />
    <path
        d="M8.55425 18.0313C8.29566 18.0313 8.03439 18.0265 7.7773 18.0171C7.73889 18.0157 7.70113 18.0067 7.66618 17.9907C7.63123 17.9747 7.59978 17.952 7.57361 17.9238C7.54745 17.8957 7.52709 17.8626 7.5137 17.8266C7.50031 17.7906 7.49414 17.7522 7.49556 17.7138C7.49698 17.6754 7.50594 17.6376 7.52195 17.6027C7.53796 17.5678 7.5607 17.5363 7.58886 17.5101C7.61703 17.484 7.65007 17.4636 7.6861 17.4502C7.72213 17.4368 7.76045 17.4307 7.79887 17.4321C8.21325 17.4473 8.63783 17.4488 9.04552 17.4401C9.08405 17.4387 9.12247 17.4451 9.15851 17.4588C9.19454 17.4725 9.22748 17.4933 9.25537 17.5199C9.28327 17.5465 9.30556 17.5784 9.32093 17.6138C9.33631 17.6491 9.34446 17.6872 9.3449 17.7258C9.34669 17.8033 9.3176 17.8784 9.26403 17.9345C9.21046 17.9907 9.13679 18.0232 9.05923 18.025C8.89274 18.0292 8.72441 18.0313 8.55425 18.0313V18.0313Z"
        fill="#1892D6" />
</svg>