<svg width="36" height="36" viewBox="0 0 36 36" fill="none" xmlns="http://www.w3.org/2000/svg">
<circle cx="18" cy="18" r="18" fill="#FFD648"/>
<path d="M26.1001 16.2C26.1001 22.5 18.0001 27.9 18.0001 27.9C18.0001 27.9 9.90009 22.5 9.90009 16.2C9.90009 14.0518 10.7535 11.9915 12.2725 10.4724C13.7916 8.9534 15.8518 8.10001 18.0001 8.10001C20.1483 8.10001 22.2086 8.9534 23.7276 10.4724C25.2467 11.9915 26.1001 14.0518 26.1001 16.2Z" fill="#F6F0DC"/>
<path d="M18.0001 18.9C19.4912 18.9 20.7001 17.6912 20.7001 16.2C20.7001 14.7088 19.4912 13.5 18.0001 13.5C16.5089 13.5 15.3 14.7088 15.3 16.2C15.3 17.6912 16.5089 18.9 18.0001 18.9Z" stroke="#FFD648" stroke-width="2" stroke-linecap="round" stroke-linejoin="round"/>
</svg>
