<svg width="20" height="20" viewBox="0 0 20 20" fill="none" xmlns="http://www.w3.org/2000/svg">
<rect width="20" height="20" fill="white"/>
<path d="M11.0886 2.68332C10.4334 2.2664 9.59619 2.2664 8.94105 2.68332L2.10352 7.03455C2.08649 7.04539 2.07617 7.06418 2.07617 7.08437V8.08298V16.3402C2.07617 17.2569 2.81931 18 3.73601 18H16.2933C17.2102 18 17.9535 17.2567 17.9535 16.3398V8.08298V7.08437C17.9535 7.06418 17.9431 7.04539 17.9261 7.03455L11.0886 2.68332ZM8.94106 4.2518C9.5962 3.83492 10.4334 3.83493 11.0885 4.25184L16.3598 7.60633L10.603 11.7929C10.2523 12.0479 9.7773 12.0479 9.42665 11.7929L3.66985 7.606L8.94106 4.2518ZM3.39928 9.04488L7.75263 12.2107L3.39928 15.3776V9.04488ZM3.86237 16.6769L8.87727 13.0294L9.42681 13.4289C9.77739 13.6838 10.2522 13.6838 10.6028 13.4289L11.1524 13.0294L16.1673 16.6769H3.86237ZM16.6303 15.3776L12.277 12.2111L16.6303 9.04488V15.3776Z" fill="black"/>
</svg>
