<svg width="30" height="30" viewBox="0 0 30 30" fill="none" xmlns="http://www.w3.org/2000/svg">
<rect width="30" height="30" rx="5" fill="#202228" fill-opacity="0.1"/>
<g opacity="0.9">
<path d="M15.002 7H14.998C10.587 7 7 10.588 7 15C7 16.75 7.564 18.372 8.523 19.689L7.526 22.661L10.601 21.678C11.866 22.516 13.375 23 15.002 23C19.413 23 23 19.411 23 15C23 10.589 19.413 7 15.002 7Z" fill="#202228"/>
<path d="M19.6569 18.297C19.4639 18.842 18.6979 19.294 18.0869 19.426C17.6689 19.515 17.1229 19.586 15.2849 18.824C12.9339 17.85 11.4199 15.461 11.3019 15.306C11.1889 15.151 10.3519 14.041 10.3519 12.893C10.3519 11.745 10.9349 11.186 11.1699 10.946C11.3629 10.749 11.6819 10.659 11.9879 10.659C12.0869 10.659 12.1759 10.664 12.2559 10.668C12.4909 10.678 12.6089 10.692 12.7639 11.063C12.9569 11.528 13.4269 12.676 13.4829 12.794C13.5399 12.912 13.5969 13.072 13.5169 13.227C13.4419 13.387 13.3759 13.458 13.2579 13.594C13.1399 13.73 13.0279 13.834 12.9099 13.98C12.8019 14.107 12.6799 14.243 12.8159 14.478C12.9519 14.708 13.4219 15.475 14.1139 16.091C15.0069 16.886 15.7309 17.14 15.9899 17.248C16.1829 17.328 16.4129 17.309 16.5539 17.159C16.7329 16.966 16.9539 16.646 17.1789 16.331C17.3389 16.105 17.5409 16.077 17.7529 16.157C17.9689 16.232 19.1119 16.797 19.3469 16.914C19.5819 17.032 19.7369 17.088 19.7939 17.187C19.8499 17.286 19.8499 17.751 19.6569 18.297Z" fill="#FAFAFA"/>
</g>
</svg>
