<svg width="18" height="18" viewBox="0 0 18 18" fill="none" xmlns="http://www.w3.org/2000/svg">
<g opacity="0.85" clip-path="url(#clip0)">
<path d="M9 0.00100708C4.02996 0.00100708 0 4.03017 0 9.00061C0 13.971 4.02956 18.0002 9 18.0002C13.9708 18.0002 18 13.971 18 9.00061C18 4.03017 13.9708 0.00100708 9 0.00100708ZM9 2.69199C10.6446 2.69199 11.9772 4.02503 11.9772 5.6688C11.9772 7.31296 10.6446 8.64561 9 8.64561C7.35623 8.64561 6.02359 7.31296 6.02359 5.6688C6.02359 4.02503 7.35623 2.69199 9 2.69199ZM8.99802 15.6472C7.35781 15.6472 5.85557 15.0499 4.69687 14.0612C4.41461 13.8204 4.25173 13.4674 4.25173 13.097C4.25173 11.4299 5.60098 10.0957 7.26847 10.0957H10.7323C12.4002 10.0957 13.7443 11.4299 13.7443 13.097C13.7443 13.4678 13.5822 13.82 13.2996 14.0608C12.1413 15.0499 10.6386 15.6472 8.99802 15.6472Z" fill="#202228"/>
</g>
<defs>
<clipPath id="clip0">
<rect width="18" height="18" fill="white"/>
</clipPath>
</defs>
</svg>
