<svg width="18" height="17" viewBox="0 0 18 17" fill="none" xmlns="http://www.w3.org/2000/svg">
<path opacity="0.8" d="M17.1337 14.7077L15.7751 1.92513C15.7751 1.12149 15.1524 0.470581 14.3837 0.470581H8.81853H3.25331C2.48462 0.470581 1.86201 1.12149 1.86201 1.92513L0.503399 14.7077C0.483225 14.8073 0.470703 14.9099 0.470703 15.016C0.470703 15.8197 1.09331 16.4706 1.86201 16.4706H8.81853H15.7751C16.5437 16.4706 17.1664 15.8197 17.1664 15.016C17.1664 14.9099 17.1538 14.8073 17.1337 14.7077ZM12.2968 4.04004V4.83422C12.2968 6.83931 10.7364 8.47058 8.81853 8.47058C6.90062 8.47058 5.34027 6.83931 5.34027 4.83422V4.04004C4.93609 3.89022 4.64462 3.49022 4.64462 3.01604C4.64462 2.41385 5.11209 1.92513 5.68809 1.92513C6.26409 1.92513 6.73157 2.41385 6.73157 3.01604V4.83422C6.73157 6.03713 7.66792 7.01604 8.81853 7.01604C9.96914 7.01604 10.9055 6.03713 10.9055 4.83422V3.01604C10.9055 2.41385 11.373 1.92513 11.949 1.92513C12.525 1.92513 12.9924 2.41385 12.9924 3.01604C12.9924 3.49022 12.701 3.89022 12.2968 4.04004Z" fill="#202228"/>
</svg>
