<svg width="20" height="20" viewBox="0 0 25 25" fill="none" xmlns="http://www.w3.org/2000/svg">
<g clip-path="url(#clip0)">
<path d="M15.6918 5.54916C16.6686 5.73973 17.5662 6.21742 18.2699 6.9211C18.9736 7.62478 19.4513 8.52243 19.6418 9.49916L15.6918 5.54916ZM15.6918 1.54916C17.7211 1.7746 19.6134 2.68334 21.0581 4.12617C22.5027 5.569 23.4138 7.46017 23.6418 9.48916L15.6918 1.54916ZM22.6418 17.4692V20.4692C22.643 20.7477 22.5859 21.0233 22.4743 21.2785C22.3628 21.5337 22.1991 21.7628 21.9939 21.951C21.7887 22.1393 21.5464 22.2826 21.2826 22.3719C21.0188 22.4611 20.7392 22.4942 20.4618 22.4692C17.3847 22.1348 14.4288 21.0833 11.8318 19.3992C9.41567 17.8638 7.36718 15.8153 5.83184 13.3992C4.14182 10.7904 3.09008 7.82016 2.76184 4.72916C2.73685 4.45263 2.76971 4.17392 2.85834 3.91079C2.94697 3.64765 3.08941 3.40585 3.27661 3.20078C3.4638 2.99572 3.69164 2.83187 3.94563 2.71969C4.19962 2.6075 4.47418 2.54943 4.75184 2.54916H7.75184C8.23715 2.54439 8.70763 2.71624 9.0756 3.0327C9.44357 3.34915 9.68392 3.78861 9.75184 4.26916C9.87846 5.22923 10.1133 6.17189 10.4518 7.07916C10.5864 7.43709 10.6155 7.82608 10.5357 8.20004C10.456 8.57401 10.2707 8.91727 10.0018 9.18916L8.73184 10.4592C10.1554 12.9627 12.2283 15.0356 14.7318 16.4592L16.0018 15.1892C16.2737 14.9203 16.617 14.735 16.991 14.6553C17.3649 14.5755 17.7539 14.6046 18.1118 14.7392C19.0191 15.0777 19.9618 15.3125 20.9218 15.4392C21.4076 15.5077 21.8512 15.7524 22.1684 16.1267C22.4855 16.5009 22.654 16.9787 22.6418 17.4692Z" stroke="black" stroke-width="2" stroke-linecap="round" stroke-linejoin="round"/>
</g>
<defs>
<clipPath id="clip0">
<rect width="24" height="24" fill="white" transform="translate(0.641846 0.549164)"/>
</clipPath>
</defs>
</svg>
