<svg width="35" height="35" viewBox="0 0 40 40" fill="none" xmlns="http://www.w3.org/2000/svg">
    <circle cx="20" cy="20" r="20" fill="#3EA2E5" />
    <path
        d="M31.3779 25.2V28.5333C31.3792 28.8427 31.3158 29.149 31.1918 29.4326C31.0679 29.7161 30.886 29.9706 30.658 30.1798C30.43 30.389 30.1608 30.5483 29.8677 30.6474C29.5745 30.7465 29.2639 30.7834 28.9557 30.7555C25.5366 30.384 22.2524 29.2157 19.3668 27.3444C16.6822 25.6385 14.4061 23.3624 12.7002 20.6777C10.8224 17.7791 9.65376 14.4788 9.28905 11.0444C9.26128 10.7371 9.2978 10.4275 9.39627 10.1351C9.49474 9.84272 9.65302 9.57405 9.86101 9.3462C10.069 9.11835 10.3222 8.9363 10.6044 8.81165C10.8866 8.68699 11.1916 8.62247 11.5002 8.62218H14.8335C15.3727 8.61687 15.8955 8.80782 16.3043 9.15944C16.7132 9.51105 16.9802 9.99934 17.0557 10.5333C17.1964 11.6 17.4573 12.6474 17.8335 13.6555C17.983 14.0532 18.0153 14.4854 17.9267 14.9009C17.8381 15.3165 17.6322 15.6979 17.3335 16L15.9224 17.4111C17.5041 20.1928 19.8073 22.496 22.589 24.0777L24.0002 22.6666C24.3023 22.3679 24.6837 22.162 25.0992 22.0734C25.5147 21.9848 25.9469 22.0171 26.3446 22.1666C27.3527 22.5428 28.4001 22.8037 29.4668 22.9444C30.0066 23.0205 30.4995 23.2924 30.8519 23.7083C31.2042 24.1242 31.3915 24.655 31.3779 25.2Z"
        stroke="white" stroke-width="2" stroke-linecap="round" stroke-linejoin="round" />
</svg>