<svg width="10" height="11" viewBox="0 0 10 11" fill="none" xmlns="http://www.w3.org/2000/svg">
<path opacity="0.8" d="M9.10714 5.05297H6.07143C5.97281 5.05297 5.89286 4.97301 5.89286 4.8744V1.83868C5.89286 1.3456 5.49308 0.945824 5 0.945824C4.50692 0.945824 4.10714 1.3456 4.10714 1.83868V4.8744C4.10714 4.97301 4.02719 5.05297 3.92857 5.05297H0.892857C0.39978 5.05297 0 5.45275 0 5.94582C0 6.4389 0.39978 6.83868 0.892857 6.83868H3.92857C4.02719 6.83868 4.10714 6.91864 4.10714 7.01725V10.053C4.10714 10.546 4.50692 10.9458 5 10.9458C5.49308 10.9458 5.89286 10.546 5.89286 10.053V7.01725C5.89286 6.91864 5.97281 6.83868 6.07143 6.83868H9.10714C9.60022 6.83868 10 6.4389 10 5.94582C10 5.45275 9.60022 5.05297 9.10714 5.05297Z" fill="#202228"/>
</svg>
