<svg width="20" height="20" viewBox="0 0 20 20" fill="none" xmlns="http://www.w3.org/2000/svg">
<rect width="20" height="20" fill="white"/>
<path d="M10.3165 8.875C10.3165 8.44697 9.96953 8.1 9.5415 8.1H6.19775C5.76972 8.1 5.42275 8.44697 5.42275 8.875C5.42275 9.30303 5.76972 9.65 6.19775 9.65H9.5415C9.96953 9.65 10.3165 9.30303 10.3165 8.875Z" fill="#040404" stroke="#040404" stroke-width="0.3"/>
<path d="M6.19775 10.6C5.76972 10.6 5.42275 10.947 5.42275 11.375C5.42275 11.803 5.76972 12.15 6.19775 12.15H7.5415C7.96953 12.15 8.3165 11.803 8.3165 11.375C8.3165 10.947 7.96953 10.6 7.5415 10.6H6.19775Z" fill="#040404" stroke="#040404" stroke-width="0.3"/>
<path d="M8.97895 16.6H5.57617C4.96976 16.6 4.47617 16.1064 4.47617 15.5V4.5C4.47617 3.89359 4.96976 3.4 5.57617 3.4H13.2602C13.8666 3.4 14.3602 3.89359 14.3602 4.5V8C14.3602 8.42803 14.7072 8.775 15.1352 8.775C15.5632 8.775 15.9102 8.42803 15.9102 8V4.5C15.9102 3.03866 14.7215 1.85 13.2602 1.85H5.57617C4.11483 1.85 2.92617 3.03866 2.92617 4.5V15.5C2.92617 16.9613 4.11483 18.15 5.57617 18.15H8.97892C9.40695 18.15 9.75392 17.803 9.75392 17.375C9.75392 16.947 9.40696 16.6 8.97895 16.6Z" fill="#040404" stroke="#040404" stroke-width="0.3"/>
<path d="M17.0452 10.9131L17.0452 10.9131L13.9775 9.54238C13.9775 9.54237 13.9775 9.54237 13.9774 9.54236C13.8562 9.48815 13.7281 9.46762 13.604 9.47692C13.4799 9.46765 13.3518 9.48823 13.2306 9.54235L13.2306 9.54236L10.1628 10.9131L10.1628 10.9131C9.88373 11.0378 9.704 11.3149 9.704 11.6207V14.0007C9.704 15.0164 10.1046 16.0491 10.8012 16.8374C11.5455 17.6798 12.5255 18.1499 13.5618 18.1499H13.6462C14.6825 18.1499 15.6625 17.6798 16.4068 16.8374C17.1033 16.0491 17.504 15.0164 17.504 14.0007V11.6207C17.504 11.315 17.3243 11.0379 17.0452 10.9131ZM13.604 11.0732L15.9539 12.1232V14.0007C15.9539 14.6116 15.7054 15.2654 15.2874 15.7658C14.8702 16.2653 14.295 16.5999 13.6461 16.5999H13.5618C12.913 16.5999 12.3378 16.2653 11.9205 15.7658C11.5025 15.2654 11.254 14.6116 11.254 14.0007V12.1232L13.604 11.0732Z" fill="#040404" stroke="#040404" stroke-width="0.3"/>
<path d="M13.4103 6.375C13.4103 5.94697 13.0633 5.6 12.6353 5.6H6.19775C5.76972 5.6 5.42275 5.94697 5.42275 6.375C5.42275 6.80303 5.76972 7.15 6.19775 7.15H12.6353C13.0633 7.15 13.4103 6.80303 13.4103 6.375Z" fill="#040404" stroke="#040404" stroke-width="0.3"/>
</svg>
