<svg width="18" height="18" viewBox="0 0 18 18" fill="none" xmlns="http://www.w3.org/2000/svg">
<g opacity="0.85">
<path d="M12.3528 9.02327V14.0749L14.1145 14.3305V9.27889L12.3528 9.02327Z" fill="black"/>
<path d="M9.53662 0V16.9271L16.9306 18V1.07293L9.53662 0ZM15.1874 15.5704L11.2797 15.0034V7.78338L15.1874 8.35038V15.5704ZM15.1874 7.62609L11.2797 7.05913V5.97466L15.1874 6.54195V7.62609ZM15.1874 5.84905L11.2797 5.28209V4.19762L15.1874 4.7649V5.84905ZM15.1875 4.08108L11.2798 3.51408V2.42965L15.1875 2.99693V4.08108Z" fill="black"/>
<path d="M1.06958 1.07293V18L8.46357 16.9271V0L1.06958 1.07293ZM6.72049 15.0034L2.8128 15.5704V8.35042L6.72049 7.78342V15.0034V15.0034ZM6.72049 7.05909L2.8128 7.62609V6.54195L6.72049 5.97466V7.05909V7.05909ZM6.72049 5.28212L2.8128 5.84905V4.76494L6.72049 4.19766V5.28212ZM6.72049 3.51408L2.8128 4.08108V2.99693L6.72049 2.42965V3.51408Z" fill="black"/>
<path d="M3.88574 9.27889V14.3305L5.64748 14.0749V9.02327L3.88574 9.27889Z" fill="black"/>
</g>
</svg>
