<svg width="20" height="20" viewBox="0 0 20 20" fill="none" xmlns="http://www.w3.org/2000/svg">
<path d="M11.6667 7.5V4.16666C11.6667 3.50362 11.4033 2.86774 10.9345 2.3989C10.4656 1.93006 9.82973 1.66666 9.16669 1.66666L5.83335 9.16666V18.3333H15.2334C15.6353 18.3379 16.0253 18.197 16.3316 17.9367C16.6379 17.6763 16.8398 17.3141 16.9 16.9167L18.05 9.41666C18.0863 9.17779 18.0702 8.9339 18.0028 8.70187C17.9354 8.46985 17.8184 8.25524 17.6599 8.07293C17.5014 7.89061 17.3051 7.74494 17.0847 7.64601C16.8642 7.54708 16.6249 7.49726 16.3834 7.5H11.6667ZM5.83335 18.3333H3.33335C2.89133 18.3333 2.4674 18.1577 2.15484 17.8452C1.84228 17.5326 1.66669 17.1087 1.66669 16.6667V10.8333C1.66669 10.3913 1.84228 9.96738 2.15484 9.65482C2.4674 9.34226 2.89133 9.16666 3.33335 9.16666H5.83335" fill="#FF2929"/>
</svg>
