<svg width="22" height="22" viewBox="0 0 22 22" fill="none" xmlns="http://www.w3.org/2000/svg">
<path d="M6.09709 11.474C6.1098 11.474 6.12252 11.474 6.13778 11.474C6.14285 11.474 6.14792 11.474 6.15303 11.474C6.16064 11.474 6.17082 11.474 6.17847 11.474C6.92376 11.4613 7.52661 11.1993 7.97173 10.6982C8.95103 9.59428 8.78826 7.7018 8.77043 7.52121C8.70684 6.16546 8.06583 5.5168 7.53675 5.21413C7.14251 4.98773 6.6821 4.86565 6.16828 4.85547H6.1505C6.14792 4.85547 6.14285 4.85547 6.14031 4.85547H6.12506C5.84271 4.85547 5.2882 4.90127 4.75655 5.20395C4.2224 5.50666 3.57122 6.15527 3.50763 7.52121C3.48983 7.7018 3.32704 9.59428 4.30632 10.6982C4.74894 11.1993 5.35179 11.4613 6.09709 11.474ZM4.18678 7.5848C4.18678 7.57715 4.18933 7.56955 4.18933 7.56443C4.27327 5.74067 5.56797 5.54482 6.12252 5.54482H6.13266C6.13778 5.54482 6.14538 5.54482 6.15303 5.54482C6.8398 5.56007 8.00735 5.83984 8.08619 7.56443C8.08619 7.57208 8.08619 7.57973 8.08873 7.5848C8.09127 7.60259 8.26933 9.3323 7.46044 10.2429C7.13998 10.6041 6.71261 10.7821 6.1505 10.7873C6.14538 10.7873 6.14285 10.7873 6.13778 10.7873C6.13266 10.7873 6.13013 10.7873 6.12506 10.7873C5.56543 10.7821 5.13557 10.6041 4.8176 10.2429C4.01127 9.33737 4.18424 7.60005 4.18678 7.5848Z" fill="black" stroke="black" stroke-width="0.5"/>
<path d="M11.3649 14.6129C11.3649 14.6104 11.3649 14.6078 11.3649 14.6053C11.3649 14.5849 11.3624 14.5646 11.3624 14.5417C11.3471 14.038 11.3141 12.8603 10.2101 12.4839C10.2025 12.4813 10.1923 12.4788 10.1847 12.4762C9.0375 12.1837 8.08364 11.5224 8.07345 11.5147C7.91829 11.4054 7.70461 11.4435 7.59525 11.5987C7.48586 11.7538 7.52401 11.9675 7.67917 12.0769C7.72244 12.1074 8.73479 12.812 10.0015 13.1376C10.5942 13.3487 10.6603 13.9821 10.6781 14.562C10.6781 14.5849 10.6781 14.6053 10.6807 14.6256C10.6832 14.8546 10.6679 15.2081 10.6273 15.4116C10.2152 15.6456 8.59999 16.4545 6.14282 16.4545C3.69584 16.4545 2.07044 15.6431 1.65583 15.4091C1.61513 15.2056 1.59733 14.852 1.60242 14.6231C1.60242 14.6027 1.60496 14.5824 1.60496 14.5595C1.62276 13.9795 1.6889 13.3462 2.28157 13.135C3.5483 12.8095 4.56067 12.1023 4.6039 12.0744C4.75906 11.965 4.79722 11.7513 4.68786 11.5962C4.57846 11.441 4.36482 11.4028 4.20965 11.5122C4.19948 11.5198 3.2507 12.1812 2.09843 12.4737C2.08825 12.4762 2.08062 12.4788 2.07299 12.4813C0.969048 12.8603 0.935979 14.038 0.920717 14.5391C0.920717 14.562 0.920717 14.5824 0.918173 14.6027C0.918173 14.6053 0.918173 14.6078 0.918173 14.6104C0.915629 14.7426 0.913085 15.4218 1.0479 15.7626C1.07334 15.8288 1.11912 15.8847 1.18017 15.9229C1.25648 15.9738 3.08536 17.1387 6.14536 17.1387C9.20538 17.1387 11.0343 15.9712 11.1106 15.9229C11.1691 15.8847 11.2174 15.8288 11.2428 15.7626C11.37 15.4243 11.3675 14.7452 11.3649 14.6129Z" fill="black" stroke="black" stroke-width="0.5"/>
<path d="M15.8139 11.474C15.8266 11.474 15.8393 11.474 15.8545 11.474C15.8597 11.474 15.8647 11.474 15.8698 11.474C15.8775 11.474 15.8876 11.474 15.8953 11.474C16.6406 11.4613 17.2434 11.1993 17.6885 10.6982C18.6678 9.59428 18.505 7.7018 18.4872 7.52121C18.4237 6.16546 17.7826 5.5168 17.2536 5.21413C16.8593 4.98773 16.3989 4.86565 15.8851 4.85547H15.8673C15.8647 4.85547 15.8597 4.85547 15.8571 4.85547H15.8418C15.5595 4.85547 15.005 4.90127 14.4734 5.20395C13.9392 5.50666 13.288 6.15527 13.2244 7.52121C13.2066 7.7018 13.0438 9.59428 14.0231 10.6982C14.4657 11.1993 15.0686 11.4613 15.8139 11.474ZM13.9036 7.5848C13.9036 7.57715 13.9061 7.56955 13.9061 7.56443C13.9901 5.74067 15.2848 5.54482 15.8393 5.54482H15.8495C15.8545 5.54482 15.8622 5.54482 15.8698 5.54482C16.5566 5.56007 17.7242 5.83984 17.803 7.56443C17.803 7.57208 17.803 7.57973 17.8055 7.5848C17.8081 7.60259 17.9861 9.3323 17.1773 10.2429C16.8568 10.6041 16.4294 10.7821 15.8673 10.7873C15.8622 10.7873 15.8597 10.7873 15.8545 10.7873C15.8495 10.7873 15.8469 10.7873 15.8418 10.7873C15.2822 10.7821 14.8524 10.6041 14.5344 10.2429C13.7281 9.33737 13.9011 7.60005 13.9036 7.5848Z" fill="black" stroke="black" stroke-width="0.5"/>
<path d="M21.0817 14.6129C21.0817 14.6104 21.0817 14.6078 21.0817 14.6053C21.0817 14.5849 21.0792 14.5646 21.0792 14.5417C21.0639 14.038 21.0308 12.8603 19.9269 12.4839C19.9193 12.4813 19.9091 12.4788 19.9015 12.4762C18.7543 12.1837 17.8004 11.5224 17.7903 11.5147C17.6351 11.4054 17.4214 11.4435 17.3121 11.5987C17.2027 11.7538 17.2408 11.9675 17.396 12.0769C17.4392 12.1074 18.4516 12.812 19.7183 13.1376C20.311 13.3487 20.3772 13.9821 20.3949 14.562C20.3949 14.5849 20.3949 14.6053 20.3975 14.6256C20.4 14.8546 20.3848 15.2081 20.3441 15.4116C19.932 15.6456 18.3168 16.4545 15.8596 16.4545C13.4126 16.4545 11.7872 15.6431 11.3726 15.4091C11.3319 15.2056 11.3141 14.852 11.3192 14.6231C11.3192 14.6027 11.3217 14.5824 11.3217 14.5595C11.3396 13.9795 11.4057 13.3462 11.9984 13.135C13.2651 12.8095 14.2775 12.1023 14.3207 12.0744C14.4759 11.965 14.514 11.7513 14.4047 11.5962C14.2953 11.441 14.0816 11.4028 13.9265 11.5122C13.9163 11.5198 12.9675 12.1812 11.8152 12.4737C11.8051 12.4762 11.7974 12.4788 11.7898 12.4813C10.6858 12.8603 10.6528 14.038 10.6375 14.5391C10.6375 14.562 10.6375 14.5824 10.635 14.6027C10.635 14.6053 10.635 14.6078 10.635 14.6104C10.6324 14.7426 10.6299 15.4218 10.7647 15.7626C10.7901 15.8288 10.8359 15.8847 10.8969 15.9229C10.9733 15.9738 12.8021 17.1387 15.8622 17.1387C18.9222 17.1387 20.7511 15.9712 20.8274 15.9229C20.8859 15.8847 20.9342 15.8288 20.9596 15.7626C21.0868 15.4243 21.0843 14.7452 21.0817 14.6129Z" fill="black" stroke="black" stroke-width="0.5"/>
</svg>
