<svg width="24" height="24" viewBox="0 0 24 24" fill="none" xmlns="http://www.w3.org/2000/svg">
<path d="M11.995 4.00001C10.4982 3.99796 9.03095 4.41583 7.75987 5.20613C6.4888 5.99643 5.46492 7.12747 4.80461 8.47067C4.1443 9.81388 3.87405 11.3154 4.02457 12.8045C4.17509 14.2937 4.74035 15.7107 5.6561 16.8946C6.57185 18.0785 7.80135 18.9818 9.20487 19.5018C10.6084 20.0217 12.1296 20.1375 13.5957 19.836C15.0617 19.5344 16.4138 18.8277 17.4982 17.796C18.5826 16.7644 19.3558 15.4492 19.73 14H17.649C17.2823 15.0372 16.6375 15.9536 15.7851 16.6491C14.9326 17.3445 13.9054 17.7922 12.8157 17.9432C11.726 18.0942 10.6158 17.9427 9.60638 17.5053C8.59697 17.0679 7.72726 16.3613 7.09232 15.4629C6.45738 14.5646 6.08166 13.5089 6.00624 12.4114C5.93082 11.3138 6.15859 10.2167 6.66467 9.2399C7.17074 8.2631 7.93562 7.44424 8.8757 6.87283C9.81578 6.30143 10.8949 5.99948 11.995 6.00001C12.7819 6.00116 13.5606 6.15917 14.2857 6.4648C15.0108 6.77043 15.6677 7.21754 16.218 7.78001L13 11H20V4.00001L17.649 6.35001C16.9082 5.60469 16.0272 5.01333 15.0568 4.61001C14.0864 4.20668 13.0458 3.99937 11.995 4.00001V4.00001Z" fill="black"/>
</svg>
