<svg width="16" height="16" viewBox="0 0 16 16" fill="none" xmlns="http://www.w3.org/2000/svg">
<circle cx="8" cy="8" r="8" fill="#EAEAEA"/>
<path d="M7.28751 4.60833L3.75834 10.5C3.68558 10.626 3.64708 10.7689 3.64667 10.9144C3.64626 11.0599 3.68396 11.203 3.75602 11.3294C3.82808 11.4558 3.93198 11.5611 4.05739 11.6349C4.1828 11.7087 4.32534 11.7484 4.47084 11.75H11.5292C11.6747 11.7484 11.8172 11.7087 11.9426 11.6349C12.068 11.5611 12.1719 11.4558 12.244 11.3294C12.3161 11.203 12.3538 11.0599 12.3533 10.9144C12.3529 10.7689 12.3144 10.626 12.2417 10.5L8.71251 4.60833C8.63823 4.48587 8.53364 4.38463 8.40884 4.31436C8.28404 4.2441 8.14323 4.20718 8.00001 4.20718C7.85679 4.20718 7.71598 4.2441 7.59118 4.31436C7.46637 4.38463 7.36179 4.48587 7.28751 4.60833V4.60833Z" stroke="#202228" stroke-linecap="round" stroke-linejoin="round"/>
<path d="M8 6.75V8.41667" stroke="#202228" stroke-linecap="round" stroke-linejoin="round"/>
<path d="M8 10.0833H8.00417" stroke="#202228" stroke-linecap="round" stroke-linejoin="round"/>
</svg>
