<svg width="18" height="18" viewBox="0 0 18 18" fill="none" xmlns="http://www.w3.org/2000/svg">
<g opacity="0.85" clip-path="url(#clip0)">
<path d="M16.2 1.8H15.3V0.9C15.3 0.36 14.94 0 14.4 0C13.86 0 13.5 0.36 13.5 0.9V1.8H4.5V0.9C4.5 0.36 4.14 0 3.6 0C3.06 0 2.7 0.36 2.7 0.9V1.8H0.9C0.45 1.8 0 2.16 0 2.7V15.3C0 15.84 0.45 16.2 0.9 16.2H6.39C5.76 15.12 5.4 13.86 5.4 12.6C5.4 8.64 8.64 5.4 12.6 5.4C14.31 5.4 15.84 6.03 17.1 7.02V2.7C17.1 2.25 16.65 1.8 16.2 1.8Z" fill="#202228"/>
<path d="M12.6 7.2C9.62995 7.2 7.19995 9.63 7.19995 12.6C7.19995 15.57 9.62995 18 12.6 18C15.57 18 18 15.57 18 12.6C18 9.63 15.57 7.2 12.6 7.2ZM14.4 13.5H12.6C12.06 13.5 11.7 13.14 11.7 12.6V9.9C11.7 9.36 12.06 9 12.6 9C13.14 9 13.5 9.36 13.5 9.9V11.7H14.4C14.94 11.7 15.3 12.06 15.3 12.6C15.3 13.14 14.94 13.5 14.4 13.5Z" fill="#202228"/>
</g>
<defs>
<clipPath id="clip0">
<rect width="18" height="18" fill="white"/>
</clipPath>
</defs>
</svg>
