<svg width="46" height="46" viewBox="0 0 46 46" fill="none" xmlns="http://www.w3.org/2000/svg">
<circle cx="23" cy="23" r="23" fill="#FFD648"/>
<g clip-path="url(#clip0)">
<path d="M26.4554 24.6812C28.6161 21.6301 27.8934 17.4052 24.8423 15.245C21.7912 13.0848 17.5663 13.8069 15.4062 16.8585C13.246 19.9097 13.9681 24.134 17.0197 26.2942C19.1975 27.836 22.0767 27.9547 24.3736 26.5982L29.3645 31.5592C29.9034 32.1265 30.8 32.1492 31.3673 31.6103C31.9346 31.0719 31.9573 30.1753 31.4189 29.6081C31.4019 29.59 31.3854 29.5735 31.3673 29.5564L26.4554 24.6812ZM20.9266 25.1437C18.5156 25.1442 16.5608 23.191 16.5593 20.7799C16.5588 18.3689 18.512 16.4141 20.9235 16.4131C23.3315 16.4121 25.2852 18.3622 25.2899 20.7701C25.294 23.1817 23.3418 25.1395 20.9297 25.1437C20.9287 25.1437 20.9282 25.1437 20.9266 25.1437Z" fill="#202228"/>
</g>
<defs>
<clipPath id="clip0">
<rect width="18" height="18" fill="white" transform="translate(14 14)"/>
</clipPath>
</defs>
</svg>
