<svg width="18" height="18" viewBox="0 0 18 18" fill="none" xmlns="http://www.w3.org/2000/svg">
<g opacity="0.8" clip-path="url(#clip0)">
<path d="M12 12L9 9L6 12" stroke="#202228" stroke-width="2" stroke-linecap="round" stroke-linejoin="round"/>
<path d="M9 9V15.75" stroke="#202228" stroke-width="2" stroke-linecap="round" stroke-linejoin="round"/>
<path d="M15.2925 13.7925C16.024 13.3937 16.6018 12.7626 16.9349 11.999C17.2679 11.2353 17.3371 10.3824 17.1316 9.57501C16.9261 8.7676 16.4576 8.05162 15.8 7.54007C15.1424 7.02852 14.3331 6.75054 13.5 6.74999H12.555C12.328 5.87192 11.9048 5.05674 11.3174 4.36573C10.73 3.67473 9.99361 3.12588 9.16355 2.76044C8.33349 2.39501 7.43138 2.22251 6.52506 2.2559C5.61873 2.28929 4.73177 2.52771 3.93085 2.95324C3.12994 3.37876 2.4359 3.98032 1.90094 4.71267C1.36597 5.44503 1.00399 6.28914 0.842205 7.18153C0.680422 8.07393 0.723049 8.99139 0.96688 9.86493C1.21071 10.7385 1.6494 11.5454 2.24997 12.225" stroke="#202228" stroke-width="2" stroke-linecap="round" stroke-linejoin="round"/>
<path d="M12 12L9 9L6 12" stroke="#202228" stroke-width="2" stroke-linecap="round" stroke-linejoin="round"/>
</g>
<defs>
<clipPath id="clip0">
<rect width="18" height="18" fill="white"/>
</clipPath>
</defs>
</svg>
