<svg width="18" height="18" viewBox="0 0 18 18" fill="none" xmlns="http://www.w3.org/2000/svg">
<g opacity="0.85">
<path d="M15.4333 8.54457V8.8226H16.6285V5.17016C16.6285 4.50934 16.091 3.9719 15.4302 3.9719H14.0273V6.45701C14.8513 6.79234 15.4333 7.60184 15.4333 8.54457V8.54457Z" fill="black"/>
<path d="M17.4721 9.87716C16.3668 9.87716 13.1611 9.87716 12.0537 9.87716C11.4843 9.87716 10.9693 10.1748 10.6795 10.645C10.3816 11.1298 10.4421 11.4016 10.4421 12.7004C10.4421 13.5856 11.1652 14.3061 12.0536 14.3061H17.4721C17.7632 14.3061 17.9993 14.07 17.9993 13.7788V10.4044C17.9993 10.1132 17.7632 9.87716 17.4721 9.87716V9.87716Z" fill="black"/>
<path d="M9.38771 12.7004V11.4828C9.38771 10.016 10.5839 8.82265 12.0538 8.82265H14.379C14.379 8.45625 14.4064 8.0761 14.0275 7.69785C13.809 7.47897 13.5095 7.34635 13.1789 7.34635C12.6289 7.34635 3.47991 7.34635 2.92011 7.34635C2.33606 7.34635 1.83643 7.424 1.39569 6.98607C0.940847 6.53386 0.943237 5.82116 1.40866 5.373C1.8415 4.9557 2.31099 5.02645 2.92011 5.02645V6.29185H5.16971V2.56595C5.16971 2.27491 5.40592 2.0387 5.69696 2.0387H10.1962C10.4872 2.0387 10.7234 2.27491 10.7234 2.56595V6.29185H12.973V0.52725C12.973 0.236208 12.7368 0 12.4458 0H3.44736C3.15632 0 2.92011 0.236208 2.92011 0.52725V3.97195H2.28076C1.02932 3.97195 0.0026231 4.9551 0.0026231 6.1864C0.0026231 17.0048 -0.014741 16.336 0.0398821 16.5933C0.231871 17.4659 0.976629 17.9968 1.73555 17.9968C13.847 17.9968 13.2638 18.0158 13.4683 17.9613C13.997 17.8326 14.379 17.3536 14.379 16.7985V15.3606H12.0538C10.5839 15.3606 9.38771 14.1672 9.38771 12.7004V12.7004Z" fill="black"/>
</g>
</svg>
