<svg width="26" height="26" viewBox="0 0 30 30" fill="none" xmlns="http://www.w3.org/2000/svg">
    <rect width="30" height="30" rx="5" fill="#4CB050" fill-opacity="0.1" />
    <path
        d="M15.0025 5H14.9975C9.48375 5 5 9.485 5 15C5 17.1875 5.705 19.215 6.90375 20.8613L5.6575 24.5763L9.50125 23.3475C11.0825 24.395 12.9687 25 15.0025 25C20.5162 25 25 20.5137 25 15C25 9.48625 20.5162 5 15.0025 5Z"
        fill="#4CAF50" />
    <path
        d="M20.8212 19.1212C20.5799 19.8025 19.6224 20.3675 18.8587 20.5325C18.3362 20.6437 17.6537 20.7325 15.3562 19.78C12.4174 18.5625 10.5249 15.5762 10.3774 15.3825C10.2362 15.1887 9.18994 13.8012 9.18994 12.3662C9.18994 10.9312 9.91869 10.2325 10.2124 9.93248C10.4537 9.68623 10.8524 9.57373 11.2349 9.57373C11.3587 9.57373 11.4699 9.57998 11.5699 9.58498C11.8637 9.59748 12.0112 9.61498 12.2049 10.0787C12.4462 10.66 13.0337 12.095 13.1037 12.2425C13.1749 12.39 13.2462 12.59 13.1462 12.7837C13.0524 12.9837 12.9699 13.0725 12.8224 13.2425C12.6749 13.4125 12.5349 13.5425 12.3874 13.725C12.2524 13.8837 12.0999 14.0537 12.2699 14.3475C12.4399 14.635 13.0274 15.5937 13.8924 16.3637C15.0087 17.3575 15.9137 17.675 16.2374 17.81C16.4787 17.91 16.7662 17.8862 16.9424 17.6987C17.1662 17.4575 17.4424 17.0575 17.7237 16.6637C17.9237 16.3812 18.1762 16.3462 18.4412 16.4462C18.7112 16.54 20.1399 17.2462 20.4337 17.3925C20.7274 17.54 20.9212 17.61 20.9924 17.7337C21.0624 17.8575 21.0624 18.4387 20.8212 19.1212Z"
        fill="#FAFAFA" />
</svg>