<svg width="30" height="30" viewBox="0 0 64 45" fill="none" xmlns="http://www.w3.org/2000/svg">
    <g clip-path="url(#clip0)">
        <path
            d="M62.5863 7.01875C62.2192 5.66214 61.5031 4.42536 60.5094 3.43157C59.5156 2.43778 58.2789 1.72165 56.9223 1.3545C51.9558 0 31.9673 0 31.9673 0C31.9673 0 11.9778 0.0409999 7.0113 1.3955C5.65468 1.76267 4.41791 2.47884 3.42416 3.47268C2.43041 4.46651 1.71436 5.70334 1.3473 7.06C-0.154946 15.8845 -0.737696 29.331 1.38855 37.8025C1.75565 39.1591 2.47172 40.3959 3.46547 41.3897C4.45921 42.3835 5.69596 43.0996 7.05255 43.4668C12.0191 44.8213 32.0081 44.8213 32.0081 44.8213C32.0081 44.8213 51.9968 44.8213 56.9631 43.4668C58.3197 43.0996 59.5565 42.3835 60.5503 41.3897C61.5441 40.3959 62.2602 39.1591 62.6273 37.8025C64.2118 28.9655 64.7001 15.5275 62.5863 7.019V7.01875Z"
            fill="#FF0000" />
        <path d="M25.605 32.0152L42.1872 22.4107L25.6052 12.8062L25.605 32.0152Z" fill="white" />
    </g>
    <defs>
        <clipPath id="clip0">
            <rect width="64" height="45" fill="white" />
        </clipPath>
    </defs>
</svg>